<svg id="Capa_1" enable-background="new 0 0 512 512" height="512" viewBox="0 0 512 512" width="512" xmlns="http://www.w3.org/2000/svg"><g><path d="m101.825 435.473v-363.553c0-11.766 9.538-21.304 21.304-21.304h363.553c11.766 0 21.304 9.538 21.304 21.304v363.553c0 11.766-9.538 21.304-21.304 21.304h-363.552c-11.766 0-21.305-9.538-21.305-21.304z" fill="#80b6fc"/><path d="m486.683 431.122h-363.553c-11.766 0-21.304-9.538-21.304-21.304v25.656c0 11.766 9.538 21.304 21.304 21.304h363.553c11.766 0 21.304-9.538 21.304-21.304v-25.656c0 11.766-9.538 21.304-21.304 21.304z" fill="#62a4fb"/><path d="m134.368 95.099v317.196c0 6.594 5.346 11.94 11.94 11.94h317.196c6.594 0 11.94-5.346 11.94-11.94v-317.196c0-6.594-5.346-11.94-11.94-11.94h-317.196c-6.594 0-11.94 5.345-11.94 11.94z" fill="#eec06b"/><path d="m297.389 350.793c-2.81 1.985-5.858 3.602-9.036 4.849-5.264 2.077-10.581 2.842-15.664 3.308-1.866.065-41.807.109-45.571.109l-11-21.105 11-21.103c32.142-.344 32.388.607 35.081-.64l33.493 21.473 1.349 13.337c.108-.076.228-.151.336-.238z" fill="#ddebfd"/><path d="m297.085 278.592-17.368 22.945-18.245 1.548-36.773-34.332 15.394-28.491 13.406-2.36z" fill="#ddebfd"/><path d="m273.394 161.123 11 20.189-11 21.991c-6.915 1.081-20.682-3.955-27.672 9.79-.022.043-.043.076-.065.12l-20.069 1.227-17.866-19.7c.054-.13.119-.249.185-.38 3.081-6.183 7.181-11.9 12.247-16.77 5.174-4.968 11.314-9.036 17.985-11.846 6.671-2.82 13.809-4.328 20.741-4.621z" fill="#ddebfd"/><path d="m384.169 161.08v42.224h-55.529l-8-25.799 8-16.425z" fill="#ddebfd"/><circle cx="404.375" cy="182.178" fill="#67b59f" r="33.842"/><path d="m64.287 241.313-56.863 56.863c-4.548 4.548-4.548 11.923 0 16.471l56.862 56.862c4.548 4.548 11.923 4.548 16.471 0l56.862-56.862c4.548-4.548 4.548-11.923 0-16.471l-56.862-56.863c-4.548-4.548-11.922-4.548-16.47 0z" fill="#ddebfd"/><path d="m137.62 298.176-16.43-16.43c4.036 4.036 3.621 10.996-.927 15.544l-56.862 56.863c-4.548 4.548-11.508 4.963-15.544.926l16.43 16.43c4.548 4.549 11.923 4.549 16.471 0l56.862-56.862c4.549-4.548 4.549-11.923 0-16.471z" fill="#bed9fd"/><path d="m72.101 314.444c-1.948 0-3.896-.743-5.382-2.229-2.973-2.973-2.973-7.792 0-10.765l.842-.842c2.972-2.971 7.792-2.971 10.764 0 2.973 2.973 2.973 7.792 0 10.765l-.842.842c-1.486 1.486-3.434 2.229-5.382 2.229z" fill="#655e67"/><path d="m92.485 419.938v80.416c0 6.432 5.214 11.647 11.647 11.647h80.416c6.432 0 11.647-5.214 11.647-11.647v-80.416c0-6.432-5.214-11.647-11.647-11.647h-80.416c-6.432 0-11.647 5.214-11.647 11.647z" fill="#ddebfd"/><path d="m184.548 486.972h-80.416c-6.432 0-11.647-4.545-11.647-10.152v23.533c0 6.432 5.214 11.647 11.647 11.647h80.416c6.432 0 11.647-5.215 11.647-11.647v-23.533c-.001 5.607-5.215 10.152-11.647 10.152z" fill="#bed9fd"/><g fill="#655e67"><path d="m130.327 482.244c-1.948 0-3.896-.743-5.382-2.229-2.973-2.973-2.973-7.792 0-10.765l.842-.842c2.972-2.971 7.792-2.971 10.764 0 2.973 2.973 2.973 7.792 0 10.765l-.842.842c-1.486 1.485-3.434 2.229-5.382 2.229z"/><path d="m157.511 455.059c-1.949 0-3.897-.743-5.384-2.231-2.972-2.973-2.97-7.793.003-10.764l.842-.841c2.974-2.973 7.793-2.97 10.764.003 2.972 2.973 2.97 7.793-.003 10.764l-.842.841c-1.486 1.486-3.433 2.228-5.38 2.228z"/></g><path d="m485.316 95.493h-80.941v-87.882h80.941c4.548 0 7.034 5.304 4.124 8.8l-26.394 31.708c-1.656 1.989-1.656 4.877 0 6.866l26.394 31.708c2.91 3.496.424 8.8-4.124 8.8z" fill="#df646e"/><path d="m463.046 54.986c-1.656-1.989-1.656-4.877 0-6.866l26.394-31.708c2.91-3.496.424-8.8-4.124-8.8h-27.347c4.549 0 7.034 5.304 4.125 8.8l-26.394 31.708c-1.656 1.989-1.656 4.877 0 6.866l26.394 31.708c2.91 3.496.424 8.8-4.125 8.8h27.347c4.549 0 7.034-5.304 4.124-8.8z" fill="#dc4955"/><path d="m410.503 326.281h-23.602c-7.146 0-12.938 5.793-12.938 12.939v23.602c0 7.146 5.793 12.938 12.938 12.938h23.602c7.146 0 12.938-5.792 12.938-12.938v-23.602c0-7.146-5.792-12.939-12.938-12.939z" fill="#62a4fb"/><g fill="#766d78"><path d="m404.375 189.789c-4.204 0-7.612-3.407-7.612-7.611v-174.567c0-4.204 3.407-7.611 7.612-7.611s7.611 3.407 7.611 7.611v174.566c0 4.205-3.407 7.612-7.611 7.612z"/><path d="m273.394 161.08h55.247v42.224h-55.247z"/><path d="m253.499 237.902-28.8 30.851-3.797-3.547c-4.501-3.942-8.465-9.652-8.548-9.763-4.283-5.704-7.268-12.507-9.014-19.526-1.736-7.018-2.256-14.297-1.41-21.348.824-6.899 2.734-13.636 5.792-19.83l37.934 18.474c.022-.043.043-.076.065-.12-1.974 3.959-2.441 8.581-1.464 12.475.499 1.963 1.323 3.808 2.571 5.522 2.126 2.94 3.547 3.775 6.671 6.812z"/><path d="m315.732 315.549c-.108 13.847-6.882 27.164-18.354 35.233-.109.087-.228.163-.336.238l-34.842-34.81c.022-.011.054-.022.076-.032 3.738-1.803 4.991-7.085 2.126-10.295-.879-.987-1.909-1.833-2.864-2.744l-.065-.055 35.613-24.493.358.325c11.043 10.189 18.433 21.137 18.288 36.633z"/><path d="m227.118 316.851v42.208h-52.264c-1.797 0-3.254-1.457-3.254-3.254v-35.7c0-1.797 1.457-3.254 3.254-3.254z"/></g></g></svg>