<svg id="Capa_1" enable-background="new 0 0 512 512" height="512" viewBox="0 0 512 512" width="512" xmlns="http://www.w3.org/2000/svg"><g><path d="m511.996 257.467c-.462 82.347-39.804 155.486-100.601 201.991-10.328 7.9-25.244.424-25.244-12.579 0-175.643-142.387-318.03-318.03-318.03h-4.375c-13.277 0-20.995-15.152-13.055-25.793 46.886-62.837 121.941-103.424 206.457-103.053 141.966.622 255.645 115.499 254.848 257.464z" fill="#44bfd7"/><path d="m451.188 165.207v256.443c-11.871 13.974-25.215 26.657-39.793 37.808-1.196.915-2.454 1.623-3.742 2.141v-296.392z" fill="#2cb3cd"/><path d="m411.625 202.418-22.859-16.774c-.818-.6-1.805-.926-2.82-.931l-28.353-.134c-2.081-.01-3.92-1.359-4.554-3.341l-8.634-27.007c-.309-.966-.916-1.81-1.734-2.41l-22.859-16.774c-1.678-1.231-2.372-3.403-1.72-5.38l8.889-26.924c.318-.963.323-2.003.014-2.969l-8.634-27.007c-.634-1.983.081-4.148 1.771-5.363l23.017-16.557c.824-.592 1.439-1.43 1.757-2.394l8.889-26.924c.653-1.976 2.504-3.308 4.585-3.298l28.353.134c1.015.005 2.005-.312 2.828-.904l23.017-16.557c1.69-1.215 3.97-1.205 5.648.027l22.859 16.774c.818.6 1.805.926 2.82.931l28.353.134c2.081.01 3.92 1.359 4.553 3.341l8.634 27.007c.309.966.916 1.81 1.734 2.41l22.859 16.774c1.678 1.231 2.372 3.403 1.72 5.38l-8.889 26.924c-.318.963-.323 2.003-.014 2.969l8.634 27.007c.634 1.983-.081 4.148-1.771 5.363l-23.017 16.557c-.824.592-1.439 1.43-1.757 2.394l-8.889 26.924c-.653 1.976-2.504 3.308-4.585 3.298l-28.353-.134c-1.015-.005-2.005.312-2.828.904l-23.017 16.557c-1.689 1.215-3.969 1.204-5.647-.027z" fill="#7cd2e3"/><path d="m413 440.117v18.103c-43.632 33.924-98.534 54.038-158.142 53.777-140.858-.614-255.31-115.981-254.857-256.839.186-57.487 19.319-110.512 51.482-153.158h23.4c186.737 0 338.117 151.38 338.117 338.117z" fill="#ffd993"/><path d="m413 445.042c-36.032 19.091-77.167 29.832-120.828 29.641-140.858-.615-255.31-115.981-254.856-256.84.134-41.717 10.247-81.086 28.077-115.843h337.607c5.523 0 10 4.477 10 10z" fill="#f5e8b4"/><path d="m340 380c0 60.654-49.346 110-110 110h-77.984c-31.905-14.199-60.368-34.731-83.794-60h161.778c27.57 0 50-22.43 50-50s-22.43-50-50-50h-219.142c-5.773-19.15-9.363-39.247-10.482-60h229.624c60.654 0 110 49.346 110 110zm0-190c0-16.568-13.432-30-30-30h-291.391c-7.681 18.976-13.153 39.082-16.097 60h307.488c16.568 0 30-13.432 30-30z" fill="#ffcd71"/><path d="m196.881 329.738h-57.617v-60.787h57.617zm-57.617 154.157c5.708 2.93 11.541 5.651 17.487 8.155h40.13v-60.787h-57.617z" fill="#82cd64"/><path d="m102.617 220.787h-57.617v-60.787h57.617zm227.067 203.379-53.828-20.698c-5.778 9.555-14.025 17.458-23.85 22.818l17.333 55.113c26.254-11.309 47.701-31.719 60.345-57.233z" fill="#ff7c48"/><path d="m257.925 69.54-6.013-10.152c-.133-.225-.323-.412-.551-.542l-10.247-5.848c-1.006-.574-1.017-2.02-.021-2.61l10.152-6.013c.225-.133.412-.323.542-.551l5.848-10.247c.574-1.006 2.02-1.017 2.61-.021l6.013 10.152c.133.225.323.412.551.542l10.247 5.848c1.006.574 1.017 2.02.021 2.61l-10.152 6.013c-.225.133-.412.323-.542.551l-5.848 10.247c-.574 1.006-2.02 1.017-2.61.021zm207.377 135.541 5.848-10.247c.13-.227.316-.417.542-.551l10.152-6.013c.996-.59.985-2.036-.021-2.61l-10.247-5.848c-.227-.13-.417-.317-.551-.542l-6.013-10.152c-.59-.996-2.036-.985-2.61.021l-5.848 10.247c-.13.227-.317.417-.542.551l-10.152 6.013c-.996.59-.985 2.036.021 2.61l10.247 5.848c.227.13.417.317.551.542l6.013 10.152c.59.997 2.036.985 2.61-.021z" fill="#a6e0ec"/><path d="m454.017 115.743-9.58-16.173c-.213-.359-.515-.656-.877-.863l-16.326-9.317c-1.602-.914-1.621-3.218-.034-4.158l16.173-9.58c.359-.213.656-.515.863-.877l9.317-16.326c.914-1.602 3.218-1.621 4.158-.034l9.58 16.173c.213.359.515.656.877.863l16.326 9.317c1.602.914 1.621 3.218.034 4.158l-16.173 9.58c-.359.213-.656.515-.863.877l-9.317 16.326c-.914 1.603-3.218 1.621-4.158.034z" fill="#f5e8b4"/><path d="m273.707 273.629.198-.628-9.539-3-.07.222c-10.836-3.394-22.357-5.223-34.296-5.223h-229.845c.116 3.35.296 6.684.539 10h14.54v50h-5.827c.939 3.362 1.944 6.696 3.015 10h217.578c24.813 0 45 20.187 45 45s-20.187 45-45 45h-166.293c3.004 3.415 6.097 6.75 9.277 10h62.25v46.781c2.053 1.1 4.122 2.173 6.208 3.219l.011.005c.002.001.004.002.007.003.393.197.787.393 1.182.588.033.017.066.033.1.049.381.188.762.375 1.143.561.048.023.095.047.143.07.374.182.749.364 1.124.544.027.013.054.026.082.04 6.148 2.955 12.432 5.672 18.841 8.139h31.302v.156h10v-.155h24.623c63.411 0 115-51.589 115-115 0-47.947-29.495-89.134-71.293-106.371zm-128.473 1.371h50.144v50h-50.144zm-10 50h-50v-50h50zm-110-50h50v50h-50zm180.144 50v-50h24.622c10.895 0 21.407 1.668 31.295 4.762l-15.002 47.701c-5.151-1.6-10.623-2.463-16.293-2.463zm50.187 6.311 15.129-48.104c21.637 9.131 39.599 25.313 50.989 45.652l-43.302 25c-5.199-9.584-13.163-17.459-22.816-22.548zm-110.331 153.689v-50h50.144v50zm60.144 0v-50h24.622c5.939 0 11.661-.946 17.024-2.696l15.003 47.702c-10.101 3.243-20.863 4.994-32.027 4.994zm66.026-8.509-15.15-48.171c8.588-4.685 15.796-11.592 20.846-19.944l47.048 18.091c-11.051 22.301-29.797 40.14-52.744 50.024zm56.754-59.196-46.672-17.946c2.271-6.022 3.514-12.543 3.514-19.349 0-5.888-.93-11.562-2.651-16.885l43.805-25.291c5.687 12.915 8.846 27.183 8.846 42.176 0 13.128-2.422 25.7-6.842 37.295zm16.842-227.295c0-19.299-15.701-35-35-35h-289.305c-1.417 3.298-2.768 6.632-4.049 10h23.354v50h-36.734c-.533 3.313-1.003 6.646-1.408 10h308.142c19.299 0 35-15.701 35-35zm-10 0c0 13.785-11.215 25-25 25h-140v-50h140c13.785 0 25 11.215 25 25zm-175 25h-50v-50h50zm-110-50h50v50h-50z" fill="#ffc14f"/><path d="m128.82 300.558-10.619 6.29c-.236.14-.431.338-.567.576l-6.117 10.719c-.6 1.052-2.113 1.064-2.73.022l-6.29-10.619c-.14-.236-.338-.431-.576-.567l-10.719-6.117c-1.052-.601-1.064-2.113-.022-2.73l10.619-6.29c.236-.14.431-.338.567-.576l6.117-10.719c.6-1.052 2.113-1.064 2.73-.022l6.29 10.619c.14.236.338.431.576.567l10.719 6.117c1.052.6 1.065 2.112.022 2.73zm25.212-111.075-10.719-6.117c-.238-.136-.436-.331-.576-.567l-6.29-10.619c-.617-1.042-2.13-1.03-2.73.022l-6.117 10.719c-.136.238-.331.437-.567.576l-10.619 6.29c-1.042.617-1.03 2.13.022 2.73l10.719 6.117c.238.136.436.331.576.567l6.29 10.619c.617 1.042 2.13 1.03 2.73-.022l6.117-10.719c.136-.238.331-.436.567-.576l10.619-6.29c1.043-.617 1.03-2.13-.022-2.73zm175.206 186.066-10.719-6.117c-.238-.136-.436-.331-.576-.567l-6.29-10.619c-.617-1.042-2.13-1.03-2.73.022l-6.117 10.719c-.136.238-.331.437-.567.576l-10.619 6.29c-1.042.617-1.03 2.13.022 2.73l10.719 6.117c.238.136.437.331.576.567l6.29 10.619c.617 1.042 2.13 1.03 2.73-.022l6.117-10.719c.136-.238.331-.436.567-.576l10.619-6.29c1.042-.617 1.03-2.129-.022-2.73z" fill="#f5e8b4"/><path d="m421 186c0 51.362-41.637 93-93 93s-93-41.637-93-93 41.637-93 93-93 93 41.638 93 93z" fill="#ffc14f"/><path d="m408 186c0 44.183-35.817 80-80 80s-80-35.817-80-80 35.817-80 80-80 80 35.817 80 80z" fill="#f9f1d2"/><path d="m325.378 94.168v-84.984l100.798 37.811c4.325 1.622 4.325 7.741 0 9.363z" fill="#5ca33b"/><path d="m325.378 9.184 100.798 37.811c.418.157.794.355 1.131.588-16.872 3.926-37.337 6.226-59.397 6.226-15.145 0-29.538-1.084-42.533-3.034v-41.591z" fill="#6dc54a"/><path d="m376.237 188.18c0 12.959-22.77 23.465-50.859 23.465s-50.859-10.505-50.859-23.465 22.77-23.465 50.859-23.465 50.859 10.506 50.859 23.465z" fill="#6dc54a"/><path d="m325.378 191.128c-4.142 0-7.5-3.358-7.5-7.5v-176.128c0-4.142 3.358-7.5 7.5-7.5 4.142 0 7.5 3.358 7.5 7.5v176.128c0 4.142-3.358 7.5-7.5 7.5z" fill="#97d57e"/><path d="m175.291 319.437c-1.279 0-2.559-.488-3.535-1.464l-14.438-14.437c-.938-.938-1.465-2.21-1.465-3.536s.526-2.598 1.465-3.536l14.438-14.437c1.951-1.951 5.118-1.952 7.071.001 1.952 1.952 1.952 5.118-.001 7.071l-10.901 10.901 10.901 10.9c1.953 1.953 1.953 5.119.001 7.071-.976.977-2.257 1.466-3.536 1.466zm-22.957 152.974c1.952 1.952 5.118 1.952 7.071-.001l10.9-10.901 10.9 10.901c1.953 1.953 5.119 1.953 7.071.001 1.953-1.953 1.952-5.12.001-7.071l-14.437-14.438c-.938-.938-2.21-1.465-3.536-1.465s-2.598.526-3.536 1.465l-14.437 14.438c-.976.977-1.464 2.256-1.464 3.535s.491 2.559 1.467 3.536z" fill="#5db33a"/><path d="m84.562 179.099-10.901 10.901 10.901 10.9c1.953 1.953 1.953 5.119.001 7.071-.977.977-2.257 1.465-3.536 1.465s-2.559-.488-3.535-1.464l-14.438-14.437c-.938-.938-1.465-2.21-1.465-3.536s.526-2.598 1.465-3.536l14.438-14.437c1.951-1.951 5.118-1.952 7.071.001s1.953 5.119-.001 7.072zm214.92 260.077-15.416.001.001-15.416c0-2.762-2.239-5.001-5-5.001-2.762 0-5.001 2.24-5.001 5l-.001 20.417c0 1.327.527 2.598 1.465 3.536s2.209 1.465 3.536 1.465l20.417-.001c1.38 0 2.63-.56 3.535-1.465s1.465-2.155 1.465-3.536c0-2.761-2.239-5-5.001-5z" fill="#d1462a"/><path d="m200.378 323.972c-2.761 0-5 2.239-5 5v27.596h-50.144v-27.596c0-2.761-2.239-5-5-5-2.761 0-5 2.239-5 5v101.028c0 2.761 2.239 5 5 5 2.761 0 5-2.239 5-5v-27.596h50.144v27.596c0 2.761 2.239 5 5 5s5-2.239 5-5v-101.028c0-2.762-2.239-5-5-5zm-55.144 68.432v-25.836h50.144v25.836z" fill="#d1462a"/><path d="m319.911 233.527c0 5.523-4.477 10-10 10h-86c-5.523 0-10-4.477-10-10s4.477-10 10-10h4.816l19.68-46.385c-6.999-5.492-11.496-14.028-11.496-23.615 0-16.569 13.431-30 30-30s30 13.431 30 30c0 9.587-4.497 18.123-11.496 23.615l19.68 46.385h4.816c5.523 0 10 4.477 10 10z" fill="#3342ae"/><path d="m309.93 243.527h-49.039c-5.512 0-9.98-4.468-9.98-9.98v-.039c0-5.512 4.468-9.98 9.98-9.98h49.039c5.512 0 9.98 4.468 9.98 9.98v.039c.001 5.512-4.468 9.98-9.98 9.98zm-24.515-66.385c-5.098 4-11.522 6.385-18.504 6.385-2.893 0-5.69-.41-8.337-1.174l-3.292 7.759c-5.415 12.764 3.953 26.915 17.818 26.915 13.865 0 23.233-14.151 17.818-26.915zm-18.504-53.615c-3.861 0-7.552.73-10.942 2.058-1.329 3.39-2.058 7.081-2.058 10.942 0 16.569 13.431 30 30 30 3.861 0 7.552-.73 10.942-2.058 1.329-3.39 2.058-7.081 2.058-10.942 0-16.568-13.432-30-30-30z" fill="#3d4ec6"/><path d="m443.361 255.028c4.447-4.447 8.924-8.635 13.367-12.53 2.471-2.166 6.175-2.166 8.647 0 4.443 3.895 8.92 8.083 13.367 12.529 4.447 4.447 8.635 8.924 12.529 13.367 2.166 2.471 2.166 6.175 0 8.647-3.895 4.443-8.083 8.92-12.529 13.367-4.447 4.447-8.924 8.635-13.367 12.53-2.471 2.166-6.175 2.166-8.647 0-4.443-3.895-8.92-8.083-13.367-12.53s-8.635-8.924-12.529-13.367c-2.166-2.471-2.166-6.175 0-8.647 3.894-4.442 8.082-8.919 12.529-13.366z" fill="#e7e7e7"/><path d="m465.374 242.498c4.443 3.895 8.921 8.083 13.367 12.53.035.035.07.07.105.105 5.602 5.608 5.567 14.707-.038 20.312l-7.944 7.944c-5.677 5.677-14.882 5.677-20.559 0l-7.372-7.372c-5.662-5.662-5.69-14.845-.041-20.52.156-.156.312-.313.468-.469 4.447-4.447 8.924-8.635 13.367-12.53 2.472-2.166 6.176-2.166 8.647 0z" fill="#fff5f5"/><path d="m464.659 252.817c1.928 1.928 1.928 5.055 0 6.983s-5.055 1.928-6.983 0-1.928-5.055 0-6.983c1.928-1.929 5.055-1.929 6.983 0zm-23.51 16.526c-1.928 1.928-1.928 5.055 0 6.983s5.055 1.928 6.983 0 1.928-5.055 0-6.983-5.054-1.928-6.983 0zm16.294 16.294c-1.928 1.928-1.928 5.055 0 6.983s5.055 1.928 6.983 0 1.928-5.055 0-6.983-5.054-1.928-6.983 0zm23.51-16.527c-1.928-1.928-5.055-1.928-6.983 0s-1.928 5.055 0 6.983 5.055 1.928 6.983 0 1.928-5.054 0-6.983zm-23.393.117c-1.928 1.928-1.928 5.055 0 6.983s5.055 1.928 6.983 0 1.928-5.055 0-6.983c-1.928-1.929-5.055-1.929-6.983 0z" fill="#464646"/></g></svg>