<svg id="svg5" height="512" viewBox="0 0 8.4666662 8.4666662" width="512" xmlns="http://www.w3.org/2000/svg" xmlns:svg="http://www.w3.org/2000/svg"><linearGradient id="linearGradient2739"><stop id="stop2737" offset="0" stop-color="#0ecc24"/></linearGradient><linearGradient id="linearGradient2667"><stop id="stop2665" offset="0"/></linearGradient><g id="layer1"><path id="rect7920" d="m.99218751.79271649c-.11039824-.00056562-.20003664.08907278-.19947102.19947102v1.08003729c-.00057679.1104028.08906819.2000478.19947102.199471.11040279.0005768.20004779-.0890682.19947099-.199471v-.6009969l1.449007 1.4484904c.07731.076447.2017424.076447.2790528 0 .076447-.07731.076447-.2017424 0-.2790528l-1.4484904-1.449007h.6009969c.1104028.0005768.2000478-.0890682.199471-.19947099.0005768-.11040283-.0890682-.20004781-.199471-.19947102zm1.80299059.86558011c-.1093922.0005691-.1976907.089561-.197404.1989543-.0005725.1095947.087809.198902.197404.199471h2.5776203c.5751424 0 1.0371459.4620035 1.0371459 1.0371459v2.5802042c-.0002887.1102009.089271.1995288.199471.1989542.1099981.0002871.1992414-.088956.1989543-.1989542v-2.5802042c0-.7896286-.6459426-1.4355712-1.4355712-1.4355712zm-.9379272.931726c-.1099981-.0002871-.1992414.0889562-.1989543.1989543v2.5838215c0 .7896286.6459426 1.4355713 1.4355712 1.4355712h2.5802042c.1099981.0002871.1992413-.0889562.1989542-.1989543.0005746-.1101998-.0887533-.1997597-.1989542-.199471h-2.5802042c-.5751424 0-1.0371459-.4620035-1.0371459-1.0371459v-2.5838215c.0002888-.110201-.0892711-.1995289-.199471-.1989543zm3.689697 2.9569252c-.076447.07731-.076447.2017424 0 .2790528l1.4490071 1.4495239h-.6015136c-.1099981-.0002871-.1992414.0889562-.1989543.1989543-.0005746.1101999.0887533.1997598.1989543.199471h1.0800374c.1103982.0005656.2000366-.0890728.199471-.199471v-1.0800374c.0002888-.110201-.0892711-.1995289-.199471-.1989543-.1099981-.0002871-.1992414.0889562-.1989543.1989543v.6015136l-1.4495238-1.4490071c-.1026342-.091069-.216937-.063053-.2790528-.0000001z" stroke-linecap="round" stroke-linejoin="round"/></g></svg>