<svg width="486" height="297" viewBox="0 0 486 297" fill="none" xmlns="http://www.w3.org/2000/svg">
<path d="M354.387 242.628V0.128288H485.21V242.628L419.799 182.003L354.387 242.628Z" fill="black" fill-opacity="0.05"/>
<path d="M425.357 176.006L419.799 170.855L414.24 176.006L362.564 223.902V8.30469H477.033V223.902L425.357 176.006Z" stroke="black" stroke-opacity="0.05" stroke-width="16.3528"/>
<path d="M422.097 171.81L416.608 166.838L411.119 171.81L359.373 218.679V8.30469H473.842V218.679L422.097 171.81Z" fill="#80D5FF" stroke="#80D5FF" stroke-width="16.3528"/>
<path d="M182.085 264.964V0.128288H312.907V264.964L247.496 198.755L182.085 264.964Z" fill="black" fill-opacity="0.05"/>
<path d="M190.261 245.054V8.30469H304.731V245.054L253.312 193.008L247.496 187.121L241.679 193.008L190.261 245.054Z" stroke="black" stroke-opacity="0.05" stroke-width="16.3528"/>
<path d="M246.864 188.428L241.114 182.74L235.364 188.428L183.879 239.356V8.30469H298.349V239.356L246.864 188.428Z" fill="#FF9742" stroke="#FF9742" stroke-width="16.3528"/>
<path d="M3.40045 296.872V0.128288H134.223V296.872L68.8116 222.686L3.40045 296.872Z" fill="black" fill-opacity="0.05"/>
<path d="M11.5768 275.235V8.30469H126.046V275.235L74.9445 217.278L68.8116 210.323L62.6787 217.278L11.5768 275.235Z" stroke="black" stroke-opacity="0.05" stroke-width="16.3528"/>
<path d="M8.38605 268.859V8.30469H122.856V268.859L71.6916 212.151L65.6208 205.422L59.5501 212.151L8.38605 268.859Z" fill="#E43135" stroke="#E43135" stroke-width="16.3528"/>
</svg>
