<svg width="73" height="45" viewBox="0 0 73 45" fill="none" xmlns="http://www.w3.org/2000/svg">
<path fill-rule="evenodd" clip-rule="evenodd" d="M58.8028 1.7409C56.1524 0.619891 53.2384 0 50.1797 0H22.2823C10.047 0 0.128418 9.91861 0.128418 22.1538C0.128418 24.1952 0.404512 26.172 0.921394 28.0491L5.98348 26.7107C8.80142 25.9656 11.646 26.1382 14.2003 27.0442C13.5939 25.6744 13.257 24.1586 13.257 22.5641C13.257 16.4465 18.2163 11.4872 24.3339 11.4872H48.1288C54.2464 11.4872 59.2057 16.4465 59.2057 22.5641C59.2057 23.7005 59.0346 24.7968 58.7167 25.8289C59.1692 25.9171 59.6217 26.0286 60.0726 26.1639L67.1454 28.287C68.5081 28.696 69.7618 29.2947 70.8865 30.0456C67.7067 38.3841 59.6349 44.3076 50.1796 44.3076H22.2331C22.2495 44.3077 22.2659 44.3077 22.2823 44.3077H50.1797C59.635 44.3077 67.7068 38.3842 70.8866 30.0457C70.8866 30.0456 70.8866 30.0456 70.8865 30.0456C71.8214 27.594 72.3334 24.9337 72.3334 22.1538C72.3334 16.5072 70.2209 11.354 66.7431 7.44142C64.569 4.99559 61.8614 3.03457 58.8028 1.7409Z" fill="#999898"/>
<path d="M0.94873 28.0344L13.1104 23.8136L14.0321 26.4692C15.1976 29.8276 13.42 33.4949 10.0617 34.6605C6.70333 35.826 3.03597 34.0484 1.87041 30.6901L0.94873 28.0344Z" fill="#999898"/>
<path d="M58.9126 25.1062L71.1309 29.3467L70.6945 30.6043C69.5235 33.9782 65.839 35.7641 62.4651 34.5932C59.0911 33.4222 57.3052 29.7378 58.4761 26.3638L58.9126 25.1062Z" fill="#999898"/>
</svg>
