<svg width="260" height="627" viewBox="0 0 260 627" fill="none" xmlns="http://www.w3.org/2000/svg">
<path d="M205.026 62.4306H190.974C166.839 62.4306 147.273 81.9963 147.273 106.132C147.273 130.268 166.839 149.833 190.974 149.833H205.026C229.162 149.833 248.727 130.268 248.727 106.132C248.727 81.9963 229.162 62.4306 205.026 62.4306Z" fill="black" fill-opacity="0.15"/>
<path fill-rule="evenodd" clip-rule="evenodd" d="M145.022 24.9722H81.8868C37.0636 24.9722 0.727142 61.3087 0.727142 106.132C0.727142 150.955 37.0635 187.292 81.8868 187.292H102.182V146.712H97.6678C75.2562 146.712 57.088 128.544 57.088 106.132C57.088 83.7203 75.2562 65.5521 97.6679 65.5521H129.235C149.524 65.5521 166.335 80.4412 169.338 99.8889H169.818C169.818 111.095 178.902 120.179 190.108 120.179H205.892C217.098 120.179 226.182 111.095 226.182 99.8889H225.945C222.757 57.9827 187.745 24.9722 145.022 24.9722Z" fill="#CACACA"/>
<path d="M205.026 282.014H190.974C166.839 282.014 147.273 301.58 147.273 325.715C147.273 349.851 166.839 369.417 190.974 369.417H205.026C229.162 369.417 248.727 349.851 248.727 325.715C248.727 301.58 229.162 282.014 205.026 282.014Z" fill="black" fill-opacity="0.15"/>
<path fill-rule="evenodd" clip-rule="evenodd" d="M145.022 244.556H81.8868C37.0636 244.556 0.727142 280.892 0.727142 325.715C0.727142 370.539 37.0635 406.875 81.8868 406.875H102.182V366.295L97.6678 366.295C75.2562 366.295 57.088 348.127 57.088 325.715C57.088 303.304 75.2562 285.135 97.6679 285.135H129.235C149.524 285.135 166.335 300.025 169.338 319.472H169.818C169.818 330.678 178.902 339.762 190.108 339.762H205.892C217.098 339.762 226.182 330.678 226.182 319.472H225.945C222.757 277.566 187.745 244.556 145.022 244.556Z" fill="#CACACA"/>
<path d="M205.026 501.597H190.974C166.839 501.597 147.273 521.163 147.273 545.299C147.273 569.434 166.839 589 190.974 589H205.026C229.162 589 248.727 569.434 248.727 545.299C248.727 521.163 229.162 501.597 205.026 501.597Z" fill="black" fill-opacity="0.15"/>
<path fill-rule="evenodd" clip-rule="evenodd" d="M145.022 464.139H81.8868C37.0636 464.139 0.727142 500.475 0.727142 545.299C0.727142 590.122 37.0635 626.458 81.8868 626.458H102.182V585.879L97.6678 585.878C75.2562 585.878 57.088 567.71 57.088 545.299C57.088 522.887 75.2562 504.719 97.6679 504.719H129.235C149.524 504.719 166.335 519.608 169.338 539.056H169.818C169.818 550.261 178.902 559.346 190.108 559.346H205.892C217.098 559.346 226.182 550.261 226.182 539.056H225.945C222.757 497.149 187.745 464.139 145.022 464.139Z" fill="#CACACA"/>
</svg>
