<svg width="714" height="171" viewBox="0 0 714 171" fill="none" xmlns="http://www.w3.org/2000/svg">
<g filter="url(#filter0_d_466_579)">
<rect x="594.736" width="69.5598" height="69.5598" rx="6.95598" fill="#FF9064"/>
<rect x="596.475" y="1.739" width="66.0818" height="66.0818" rx="5.21699" stroke="white" stroke-width="3.47799"/>
</g>
<g filter="url(#filter1_d_466_579)">
<rect x="316.497" width="69.5598" height="69.5598" rx="6.95598" fill="#62B8C5"/>
<rect x="318.236" y="1.739" width="66.0818" height="66.0818" rx="5.21699" stroke="white" stroke-width="3.47799"/>
</g>
<g filter="url(#filter2_d_466_579)">
<rect x="455.617" y="90.4277" width="69.5598" height="69.5598" rx="6.95598" fill="#B2A945"/>
<rect x="457.356" y="92.1667" width="66.0818" height="66.0818" rx="5.21699" stroke="white" stroke-width="3.47799"/>
</g>
<g filter="url(#filter3_d_466_579)">
<rect x="38.2578" width="69.5598" height="69.5598" rx="6.95598" fill="#D13538"/>
<rect x="39.9968" y="1.739" width="66.0818" height="66.0818" rx="5.21699" stroke="white" stroke-width="3.47799"/>
</g>
<g filter="url(#filter4_d_466_579)">
<rect x="177.377" y="93.9058" width="69.5598" height="69.5598" rx="6.95598" fill="#F4A733"/>
<rect x="179.116" y="95.6448" width="66.0818" height="66.0818" rx="5.21699" stroke="white" stroke-width="3.47799"/>
</g>
<path d="M177.377 128.686L169.552 133.204V124.168L177.377 128.686Z" fill="white"/>
<path d="M107.818 34.8199C110.394 34.4647 124.306 36.486 133.581 40.7491C145.174 46.078 151.615 64.5441 147.75 80.1884C141.286 106.358 147.815 130.425 173.899 128.686" stroke="white" stroke-width="3.47799" stroke-dasharray="6.96 6.96"/>
<rect x="167.986" y="126.947" width="3.47799" height="3.47799" fill="white"/>
<path d="M455.617 125.208L447.791 129.726V120.69L455.617 125.208Z" fill="white"/>
<path d="M386.057 31.3419C388.633 30.9866 402.545 33.0079 411.82 37.2711C423.413 42.6 429.854 61.0661 425.99 76.7104C419.525 102.88 426.054 126.947 452.139 125.208" stroke="white" stroke-width="3.47799" stroke-dasharray="6.96 6.96"/>
<rect x="446.226" y="123.469" width="3.47799" height="3.47799" fill="white"/>
<path d="M316.497 34.7798L308.672 30.2618V39.2979L316.497 34.7798Z" fill="white"/>
<path d="M246.937 128.646C249.514 129.001 263.426 126.98 272.7 122.716C284.293 117.388 290.734 98.9215 286.87 83.2772C280.405 57.1078 286.934 33.0408 313.019 34.7798" stroke="white" stroke-width="3.47799" stroke-dasharray="6.96 6.96"/>
<rect width="3.47799" height="3.47799" transform="matrix(1 0 0 -1 307.106 36.5188)" fill="white"/>
<path d="M594.737 33.0408L586.911 28.5228V37.5589L594.737 33.0408Z" fill="white"/>
<path d="M525.177 126.907C527.753 127.262 541.665 125.241 550.94 120.978C562.533 115.649 568.974 97.1827 565.109 81.5384C558.645 55.369 565.174 31.302 591.259 33.041" stroke="white" stroke-width="3.47799" stroke-dasharray="6.96 6.96"/>
<rect width="3.47799" height="3.47799" transform="matrix(1 0 0 -1 585.345 34.7798)" fill="white"/>
<path d="M316.497 34.7798L308.672 30.2618V39.2979L316.497 34.7798Z" fill="white"/>
<path d="M246.937 128.646C249.514 129.001 263.426 126.98 272.7 122.716C284.293 117.388 290.734 98.9215 286.87 83.2772C280.405 57.1078 286.934 33.0408 313.019 34.7798" stroke="white" stroke-width="3.47799" stroke-dasharray="6.96 6.96"/>
<rect width="3.47799" height="3.47799" transform="matrix(1 0 0 -1 307.106 36.5188)" fill="white"/>
<mask id="path-26-outside-1_466_579" maskUnits="userSpaceOnUse" x="2" y="23.824" width="712" height="92" fill="black">
<rect fill="white" x="2" y="23.824" width="712" height="92"/>
<path d="M38.7935 71.1315C39.4567 70.3478 39.7882 69.4134 39.7882 68.3282C39.7882 67.2431 39.4567 66.2785 38.7935 65.4345C38.1907 64.5303 37.2864 64.0781 36.0807 64.0781H28.4847V72.307H36.0807C37.2864 72.307 38.1907 71.9152 38.7935 71.1315ZM28.4847 87.4085V96.2704H36.8945C38.2811 96.2704 39.3059 95.8183 39.9691 94.914C40.6925 93.9494 41.0542 92.8944 41.0542 91.749V91.6586C41.0542 90.5132 40.6624 89.5185 39.8786 88.6745C39.1552 87.8305 38.1605 87.4085 36.8945 87.4085H28.4847ZM39.2457 111.824H8.31936C7.65622 111.824 7.08351 111.583 6.60123 111.101C6.11895 110.618 5.87781 110.046 5.87781 109.382V50.9661C5.87781 50.3029 6.11895 49.7302 6.60123 49.248C7.08351 48.7657 7.65622 48.5245 8.31936 48.5245H38.3414C46.9019 48.5245 53.2017 50.092 57.2408 53.2268C61.3402 56.3013 63.3899 60.9734 63.3899 67.2431V67.5144C63.3899 70.1066 62.6363 72.4276 61.1292 74.4773C59.622 76.4667 57.9642 77.9136 56.1556 78.8178C58.5671 79.7824 60.5866 81.5005 62.2143 83.9722C63.9023 86.3836 64.7463 89.0362 64.7463 91.9299C64.7463 105.193 56.2461 111.824 39.2457 111.824ZM103.618 111.824H76.67C76.0069 111.824 75.4342 111.583 74.9519 111.101C74.4696 110.618 74.2285 110.046 74.2285 109.382V50.9661C74.2285 50.3029 74.4696 49.7302 74.9519 49.248C75.4342 48.7657 76.0069 48.5245 76.67 48.5245H95.2982C95.9613 48.5245 96.534 48.7657 97.0163 49.248C97.4986 49.7302 97.7397 50.3029 97.7397 50.9661V68.2378H103.618C112.359 68.2378 119.141 69.9861 123.964 73.4826C128.847 76.9791 131.288 82.3747 131.288 89.6692C131.288 96.9637 128.847 102.48 123.964 106.217C119.081 109.955 112.299 111.824 103.618 111.824ZM97.2876 84.9669V95.0044H103.618C105.064 95.0044 106.119 94.492 106.782 93.4671C107.446 92.4423 107.777 91.1763 107.777 89.6692C107.777 88.162 107.355 87.0166 106.511 86.2329C105.667 85.3889 104.703 84.9669 103.618 84.9669H97.2876ZM155.523 111.824H137.076C136.413 111.824 135.84 111.583 135.358 111.101C134.875 110.618 134.634 110.046 134.634 109.382V50.9661C134.634 50.3029 134.875 49.7302 135.358 49.248C135.84 48.7657 136.413 48.5245 137.076 48.5245H155.523C156.186 48.5245 156.759 48.7657 157.241 49.248C157.723 49.7302 157.965 50.3029 157.965 50.9661V109.382C157.965 110.046 157.723 110.618 157.241 111.101C156.759 111.583 156.186 111.824 155.523 111.824ZM252.25 108.84C252.431 109.141 252.522 109.533 252.522 110.015C252.522 110.437 252.311 110.859 251.889 111.281C251.527 111.643 251.075 111.824 250.532 111.824H232.628C230.879 111.824 229.643 111.131 228.92 109.744L218.792 87.318V109.382C218.792 110.046 218.551 110.618 218.069 111.101C217.586 111.583 217.014 111.824 216.351 111.824H200.887C200.224 111.824 199.652 111.583 199.169 111.101C198.687 110.618 198.446 110.046 198.446 109.382V87.318L188.318 109.744C187.655 111.131 186.419 111.824 184.61 111.824H166.706C166.163 111.824 165.681 111.643 165.259 111.281C164.897 110.859 164.716 110.437 164.716 110.015C164.716 109.533 164.807 109.141 164.988 108.84L180.089 78.8178L166.525 51.5087C166.344 51.2072 166.254 50.8455 166.254 50.4235C166.254 49.9412 166.434 49.5192 166.796 49.1575C167.218 48.7355 167.7 48.5245 168.243 48.5245H185.515C187.263 48.5245 188.469 49.1877 189.132 50.5139L198.446 71.5836V50.9661C198.446 50.3029 198.687 49.7302 199.169 49.248C199.652 48.7657 200.224 48.5245 200.887 48.5245H216.351C217.014 48.5245 217.586 48.7657 218.069 49.248C218.551 49.7302 218.792 50.3029 218.792 50.9661V71.5836L228.106 50.5139C228.769 49.1877 229.975 48.5245 231.723 48.5245H248.995C249.538 48.5245 249.99 48.7355 250.351 49.1575C250.773 49.5192 250.984 49.9412 250.984 50.4235C250.984 50.8455 250.894 51.2072 250.713 51.5087L237.149 78.8178L252.25 108.84ZM261.764 48.5245H278.132C278.795 48.5245 279.368 48.7657 279.85 49.248C280.332 49.7302 280.573 50.3029 280.573 50.9661V75.6529L295.856 50.6044C296.639 49.2178 297.875 48.5245 299.563 48.5245H313.851C314.514 48.5245 315.087 48.7657 315.569 49.248C316.051 49.7302 316.292 50.3029 316.292 50.9661V109.382C316.292 110.046 316.051 110.618 315.569 111.101C315.087 111.583 314.514 111.824 313.851 111.824H297.483C296.82 111.824 296.247 111.583 295.765 111.101C295.283 110.618 295.042 110.046 295.042 109.382V86.6851L279.759 109.744C278.855 111.131 277.619 111.824 276.052 111.824H261.764C261.101 111.824 260.529 111.583 260.046 111.101C259.564 110.618 259.323 110.046 259.323 109.382V50.9661C259.323 50.3029 259.564 49.7302 260.046 49.248C260.529 48.7657 261.101 48.5245 261.764 48.5245ZM360.942 71.1315C361.606 70.3478 361.937 69.4134 361.937 68.3282C361.937 67.2431 361.606 66.2785 360.942 65.4345C360.34 64.5303 359.435 64.0781 358.23 64.0781H350.634V72.307H358.23C359.435 72.307 360.34 71.9152 360.942 71.1315ZM350.634 87.4085V96.2704H359.043C360.43 96.2704 361.455 95.8183 362.118 94.914C362.841 93.9494 363.203 92.8944 363.203 91.749V91.6586C363.203 90.5132 362.811 89.5185 362.028 88.6745C361.304 87.8305 360.309 87.4085 359.043 87.4085H350.634ZM361.395 111.824H330.468C329.805 111.824 329.232 111.583 328.75 111.101C328.268 110.618 328.027 110.046 328.027 109.382V50.9661C328.027 50.3029 328.268 49.7302 328.75 49.248C329.232 48.7657 329.805 48.5245 330.468 48.5245H360.49C369.051 48.5245 375.351 50.092 379.39 53.2268C383.489 56.3013 385.539 60.9734 385.539 67.2431V67.5144C385.539 70.1066 384.785 72.4276 383.278 74.4773C381.771 76.4667 380.113 77.9136 378.305 78.8178C380.716 79.7824 382.736 81.5005 384.363 83.9722C386.051 86.3836 386.895 89.0362 386.895 91.9299C386.895 105.193 378.395 111.824 361.395 111.824ZM416.181 48.5245H435.804C437.974 48.5245 439.331 49.5192 439.873 51.5087L460.039 109.202C460.099 109.382 460.129 109.684 460.129 110.106C460.129 110.468 459.918 110.859 459.496 111.281C459.134 111.643 458.682 111.824 458.14 111.824H441.41C439.602 111.824 438.426 111.07 437.884 109.563L435.713 103.595H416.272L414.101 109.563C413.559 111.07 412.383 111.824 410.575 111.824H393.845C393.303 111.824 392.821 111.643 392.399 111.281C392.037 110.859 391.856 110.468 391.856 110.106C391.856 109.684 391.886 109.382 391.946 109.202L412.112 51.5087C412.654 49.5192 414.011 48.5245 416.181 48.5245ZM420.883 85.9616H431.102L425.947 69.1421L420.883 85.9616ZM469.819 48.5245H486.186C486.849 48.5245 487.422 48.7657 487.904 49.248C488.387 49.7302 488.628 50.3029 488.628 50.9661V75.6529L503.91 50.6044C504.694 49.2178 505.93 48.5245 507.618 48.5245H521.905C522.568 48.5245 523.141 48.7657 523.623 49.248C524.106 49.7302 524.347 50.3029 524.347 50.9661V109.382C524.347 110.046 524.106 110.618 523.623 111.101C523.141 111.583 522.568 111.824 521.905 111.824H505.538C504.875 111.824 504.302 111.583 503.82 111.101C503.337 110.618 503.096 110.046 503.096 109.382V86.6851L487.814 109.744C486.91 111.131 485.674 111.824 484.106 111.824H469.819C469.156 111.824 468.583 111.583 468.101 111.101C467.618 110.618 467.377 110.046 467.377 109.382V50.9661C467.377 50.3029 467.618 49.7302 468.101 49.248C468.583 48.7657 469.156 48.5245 469.819 48.5245ZM499.298 29.8964C499.298 28.751 499.871 28.1783 501.016 28.1783H509.969C511.114 28.1783 511.687 28.751 511.687 29.8964C511.687 34.1767 510.331 37.6129 507.618 40.2052C504.905 42.7372 500.896 44.0031 495.591 44.0031C490.346 44.0031 486.367 42.707 483.654 40.1148C480.941 37.5225 479.585 34.1164 479.585 29.8964C479.585 28.751 480.158 28.1783 481.303 28.1783H490.256C491.401 28.1783 491.974 28.751 491.974 29.8964C491.974 33.2121 493.179 34.8699 495.591 34.8699C498.062 34.8699 499.298 33.2121 499.298 29.8964ZM536.262 72.4879H568.183C568.846 72.4879 569.419 72.729 569.901 73.2113C570.384 73.6936 570.625 74.2663 570.625 74.9294V87.7702C570.625 88.4333 570.384 89.006 569.901 89.4883C569.419 89.9706 568.846 90.2117 568.183 90.2117H536.262C535.599 90.2117 535.026 89.9706 534.544 89.4883C534.062 89.006 533.821 88.4333 533.821 87.7702V74.9294C533.821 74.2663 534.062 73.6936 534.544 73.2113C535.026 72.729 535.599 72.4879 536.262 72.4879ZM639.377 108.84C639.558 109.141 639.649 109.533 639.649 110.015C639.649 110.437 639.438 110.859 639.016 111.281C638.654 111.643 638.202 111.824 637.659 111.824H617.042C615.293 111.824 614.058 111.131 613.334 109.744L602.302 90.0309V109.382C602.302 110.046 602.061 110.618 601.578 111.101C601.096 111.583 600.523 111.824 599.86 111.824H582.589C581.926 111.824 581.353 111.583 580.871 111.101C580.388 110.618 580.147 110.046 580.147 109.382V50.9661C580.147 50.3029 580.388 49.7302 580.871 49.248C581.353 48.7657 581.926 48.5245 582.589 48.5245H599.86C600.523 48.5245 601.096 48.7657 601.578 49.248C602.061 49.7302 602.302 50.3029 602.302 50.9661V68.8708L612.52 50.5139C613.183 49.1877 614.389 48.5245 616.137 48.5245H636.122C636.664 48.5245 637.117 48.7355 637.478 49.1575C637.9 49.5192 638.111 49.9412 638.111 50.4235C638.111 50.8455 638.021 51.2072 637.84 51.5087L621.563 78.8178L639.377 108.84ZM666.27 48.5245H685.893C688.063 48.5245 689.42 49.5192 689.962 51.5087L710.128 109.202C710.188 109.382 710.218 109.684 710.218 110.106C710.218 110.468 710.007 110.859 709.585 111.281C709.224 111.643 708.771 111.824 708.229 111.824H691.5C689.691 111.824 688.516 111.07 687.973 109.563L685.803 103.595H666.361L664.191 109.563C663.648 111.07 662.472 111.824 660.664 111.824H643.935C643.392 111.824 642.91 111.643 642.488 111.281C642.126 110.859 641.945 110.468 641.945 110.106C641.945 109.684 641.975 109.382 642.036 109.202L662.201 51.5087C662.744 49.5192 664.1 48.5245 666.27 48.5245ZM670.973 85.9616H681.191L676.037 69.1421L670.973 85.9616Z"/>
</mask>
<path d="M38.7935 71.1315C39.4567 70.3478 39.7882 69.4134 39.7882 68.3282C39.7882 67.2431 39.4567 66.2785 38.7935 65.4345C38.1907 64.5303 37.2864 64.0781 36.0807 64.0781H28.4847V72.307H36.0807C37.2864 72.307 38.1907 71.9152 38.7935 71.1315ZM28.4847 87.4085V96.2704H36.8945C38.2811 96.2704 39.3059 95.8183 39.9691 94.914C40.6925 93.9494 41.0542 92.8944 41.0542 91.749V91.6586C41.0542 90.5132 40.6624 89.5185 39.8786 88.6745C39.1552 87.8305 38.1605 87.4085 36.8945 87.4085H28.4847ZM39.2457 111.824H8.31936C7.65622 111.824 7.08351 111.583 6.60123 111.101C6.11895 110.618 5.87781 110.046 5.87781 109.382V50.9661C5.87781 50.3029 6.11895 49.7302 6.60123 49.248C7.08351 48.7657 7.65622 48.5245 8.31936 48.5245H38.3414C46.9019 48.5245 53.2017 50.092 57.2408 53.2268C61.3402 56.3013 63.3899 60.9734 63.3899 67.2431V67.5144C63.3899 70.1066 62.6363 72.4276 61.1292 74.4773C59.622 76.4667 57.9642 77.9136 56.1556 78.8178C58.5671 79.7824 60.5866 81.5005 62.2143 83.9722C63.9023 86.3836 64.7463 89.0362 64.7463 91.9299C64.7463 105.193 56.2461 111.824 39.2457 111.824ZM103.618 111.824H76.67C76.0069 111.824 75.4342 111.583 74.9519 111.101C74.4696 110.618 74.2285 110.046 74.2285 109.382V50.9661C74.2285 50.3029 74.4696 49.7302 74.9519 49.248C75.4342 48.7657 76.0069 48.5245 76.67 48.5245H95.2982C95.9613 48.5245 96.534 48.7657 97.0163 49.248C97.4986 49.7302 97.7397 50.3029 97.7397 50.9661V68.2378H103.618C112.359 68.2378 119.141 69.9861 123.964 73.4826C128.847 76.9791 131.288 82.3747 131.288 89.6692C131.288 96.9637 128.847 102.48 123.964 106.217C119.081 109.955 112.299 111.824 103.618 111.824ZM97.2876 84.9669V95.0044H103.618C105.064 95.0044 106.119 94.492 106.782 93.4671C107.446 92.4423 107.777 91.1763 107.777 89.6692C107.777 88.162 107.355 87.0166 106.511 86.2329C105.667 85.3889 104.703 84.9669 103.618 84.9669H97.2876ZM155.523 111.824H137.076C136.413 111.824 135.84 111.583 135.358 111.101C134.875 110.618 134.634 110.046 134.634 109.382V50.9661C134.634 50.3029 134.875 49.7302 135.358 49.248C135.84 48.7657 136.413 48.5245 137.076 48.5245H155.523C156.186 48.5245 156.759 48.7657 157.241 49.248C157.723 49.7302 157.965 50.3029 157.965 50.9661V109.382C157.965 110.046 157.723 110.618 157.241 111.101C156.759 111.583 156.186 111.824 155.523 111.824ZM252.25 108.84C252.431 109.141 252.522 109.533 252.522 110.015C252.522 110.437 252.311 110.859 251.889 111.281C251.527 111.643 251.075 111.824 250.532 111.824H232.628C230.879 111.824 229.643 111.131 228.92 109.744L218.792 87.318V109.382C218.792 110.046 218.551 110.618 218.069 111.101C217.586 111.583 217.014 111.824 216.351 111.824H200.887C200.224 111.824 199.652 111.583 199.169 111.101C198.687 110.618 198.446 110.046 198.446 109.382V87.318L188.318 109.744C187.655 111.131 186.419 111.824 184.61 111.824H166.706C166.163 111.824 165.681 111.643 165.259 111.281C164.897 110.859 164.716 110.437 164.716 110.015C164.716 109.533 164.807 109.141 164.988 108.84L180.089 78.8178L166.525 51.5087C166.344 51.2072 166.254 50.8455 166.254 50.4235C166.254 49.9412 166.434 49.5192 166.796 49.1575C167.218 48.7355 167.7 48.5245 168.243 48.5245H185.515C187.263 48.5245 188.469 49.1877 189.132 50.5139L198.446 71.5836V50.9661C198.446 50.3029 198.687 49.7302 199.169 49.248C199.652 48.7657 200.224 48.5245 200.887 48.5245H216.351C217.014 48.5245 217.586 48.7657 218.069 49.248C218.551 49.7302 218.792 50.3029 218.792 50.9661V71.5836L228.106 50.5139C228.769 49.1877 229.975 48.5245 231.723 48.5245H248.995C249.538 48.5245 249.99 48.7355 250.351 49.1575C250.773 49.5192 250.984 49.9412 250.984 50.4235C250.984 50.8455 250.894 51.2072 250.713 51.5087L237.149 78.8178L252.25 108.84ZM261.764 48.5245H278.132C278.795 48.5245 279.368 48.7657 279.85 49.248C280.332 49.7302 280.573 50.3029 280.573 50.9661V75.6529L295.856 50.6044C296.639 49.2178 297.875 48.5245 299.563 48.5245H313.851C314.514 48.5245 315.087 48.7657 315.569 49.248C316.051 49.7302 316.292 50.3029 316.292 50.9661V109.382C316.292 110.046 316.051 110.618 315.569 111.101C315.087 111.583 314.514 111.824 313.851 111.824H297.483C296.82 111.824 296.247 111.583 295.765 111.101C295.283 110.618 295.042 110.046 295.042 109.382V86.6851L279.759 109.744C278.855 111.131 277.619 111.824 276.052 111.824H261.764C261.101 111.824 260.529 111.583 260.046 111.101C259.564 110.618 259.323 110.046 259.323 109.382V50.9661C259.323 50.3029 259.564 49.7302 260.046 49.248C260.529 48.7657 261.101 48.5245 261.764 48.5245ZM360.942 71.1315C361.606 70.3478 361.937 69.4134 361.937 68.3282C361.937 67.2431 361.606 66.2785 360.942 65.4345C360.34 64.5303 359.435 64.0781 358.23 64.0781H350.634V72.307H358.23C359.435 72.307 360.34 71.9152 360.942 71.1315ZM350.634 87.4085V96.2704H359.043C360.43 96.2704 361.455 95.8183 362.118 94.914C362.841 93.9494 363.203 92.8944 363.203 91.749V91.6586C363.203 90.5132 362.811 89.5185 362.028 88.6745C361.304 87.8305 360.309 87.4085 359.043 87.4085H350.634ZM361.395 111.824H330.468C329.805 111.824 329.232 111.583 328.75 111.101C328.268 110.618 328.027 110.046 328.027 109.382V50.9661C328.027 50.3029 328.268 49.7302 328.75 49.248C329.232 48.7657 329.805 48.5245 330.468 48.5245H360.49C369.051 48.5245 375.351 50.092 379.39 53.2268C383.489 56.3013 385.539 60.9734 385.539 67.2431V67.5144C385.539 70.1066 384.785 72.4276 383.278 74.4773C381.771 76.4667 380.113 77.9136 378.305 78.8178C380.716 79.7824 382.736 81.5005 384.363 83.9722C386.051 86.3836 386.895 89.0362 386.895 91.9299C386.895 105.193 378.395 111.824 361.395 111.824ZM416.181 48.5245H435.804C437.974 48.5245 439.331 49.5192 439.873 51.5087L460.039 109.202C460.099 109.382 460.129 109.684 460.129 110.106C460.129 110.468 459.918 110.859 459.496 111.281C459.134 111.643 458.682 111.824 458.14 111.824H441.41C439.602 111.824 438.426 111.07 437.884 109.563L435.713 103.595H416.272L414.101 109.563C413.559 111.07 412.383 111.824 410.575 111.824H393.845C393.303 111.824 392.821 111.643 392.399 111.281C392.037 110.859 391.856 110.468 391.856 110.106C391.856 109.684 391.886 109.382 391.946 109.202L412.112 51.5087C412.654 49.5192 414.011 48.5245 416.181 48.5245ZM420.883 85.9616H431.102L425.947 69.1421L420.883 85.9616ZM469.819 48.5245H486.186C486.849 48.5245 487.422 48.7657 487.904 49.248C488.387 49.7302 488.628 50.3029 488.628 50.9661V75.6529L503.91 50.6044C504.694 49.2178 505.93 48.5245 507.618 48.5245H521.905C522.568 48.5245 523.141 48.7657 523.623 49.248C524.106 49.7302 524.347 50.3029 524.347 50.9661V109.382C524.347 110.046 524.106 110.618 523.623 111.101C523.141 111.583 522.568 111.824 521.905 111.824H505.538C504.875 111.824 504.302 111.583 503.82 111.101C503.337 110.618 503.096 110.046 503.096 109.382V86.6851L487.814 109.744C486.91 111.131 485.674 111.824 484.106 111.824H469.819C469.156 111.824 468.583 111.583 468.101 111.101C467.618 110.618 467.377 110.046 467.377 109.382V50.9661C467.377 50.3029 467.618 49.7302 468.101 49.248C468.583 48.7657 469.156 48.5245 469.819 48.5245ZM499.298 29.8964C499.298 28.751 499.871 28.1783 501.016 28.1783H509.969C511.114 28.1783 511.687 28.751 511.687 29.8964C511.687 34.1767 510.331 37.6129 507.618 40.2052C504.905 42.7372 500.896 44.0031 495.591 44.0031C490.346 44.0031 486.367 42.707 483.654 40.1148C480.941 37.5225 479.585 34.1164 479.585 29.8964C479.585 28.751 480.158 28.1783 481.303 28.1783H490.256C491.401 28.1783 491.974 28.751 491.974 29.8964C491.974 33.2121 493.179 34.8699 495.591 34.8699C498.062 34.8699 499.298 33.2121 499.298 29.8964ZM536.262 72.4879H568.183C568.846 72.4879 569.419 72.729 569.901 73.2113C570.384 73.6936 570.625 74.2663 570.625 74.9294V87.7702C570.625 88.4333 570.384 89.006 569.901 89.4883C569.419 89.9706 568.846 90.2117 568.183 90.2117H536.262C535.599 90.2117 535.026 89.9706 534.544 89.4883C534.062 89.006 533.821 88.4333 533.821 87.7702V74.9294C533.821 74.2663 534.062 73.6936 534.544 73.2113C535.026 72.729 535.599 72.4879 536.262 72.4879ZM639.377 108.84C639.558 109.141 639.649 109.533 639.649 110.015C639.649 110.437 639.438 110.859 639.016 111.281C638.654 111.643 638.202 111.824 637.659 111.824H617.042C615.293 111.824 614.058 111.131 613.334 109.744L602.302 90.0309V109.382C602.302 110.046 602.061 110.618 601.578 111.101C601.096 111.583 600.523 111.824 599.86 111.824H582.589C581.926 111.824 581.353 111.583 580.871 111.101C580.388 110.618 580.147 110.046 580.147 109.382V50.9661C580.147 50.3029 580.388 49.7302 580.871 49.248C581.353 48.7657 581.926 48.5245 582.589 48.5245H599.86C600.523 48.5245 601.096 48.7657 601.578 49.248C602.061 49.7302 602.302 50.3029 602.302 50.9661V68.8708L612.52 50.5139C613.183 49.1877 614.389 48.5245 616.137 48.5245H636.122C636.664 48.5245 637.117 48.7355 637.478 49.1575C637.9 49.5192 638.111 49.9412 638.111 50.4235C638.111 50.8455 638.021 51.2072 637.84 51.5087L621.563 78.8178L639.377 108.84ZM666.27 48.5245H685.893C688.063 48.5245 689.42 49.5192 689.962 51.5087L710.128 109.202C710.188 109.382 710.218 109.684 710.218 110.106C710.218 110.468 710.007 110.859 709.585 111.281C709.224 111.643 708.771 111.824 708.229 111.824H691.5C689.691 111.824 688.516 111.07 687.973 109.563L685.803 103.595H666.361L664.191 109.563C663.648 111.07 662.472 111.824 660.664 111.824H643.935C643.392 111.824 642.91 111.643 642.488 111.281C642.126 110.859 641.945 110.468 641.945 110.106C641.945 109.684 641.975 109.382 642.036 109.202L662.201 51.5087C662.744 49.5192 664.1 48.5245 666.27 48.5245ZM670.973 85.9616H681.191L676.037 69.1421L670.973 85.9616Z" fill="#FF9742"/>
<path d="M38.7935 71.1315L36.1385 68.8849L36.0861 68.9467L36.0368 69.0109L38.7935 71.1315ZM38.7935 65.4345L35.8996 67.3638L35.9749 67.4766L36.0587 67.5833L38.7935 65.4345ZM28.4847 64.0781V60.6001H25.0068V64.0781H28.4847ZM28.4847 72.307H25.0068V75.785H28.4847V72.307ZM28.4847 87.4085V83.9305H25.0068V87.4085H28.4847ZM28.4847 96.2704H25.0068V99.7484H28.4847V96.2704ZM39.9691 94.914L37.1867 92.8272L37.1755 92.8421L37.1644 92.8572L39.9691 94.914ZM39.8786 88.6745L37.238 90.9379L37.283 90.9904L37.33 91.0411L39.8786 88.6745ZM6.60123 111.101L9.06054 108.641L9.06054 108.641L6.60123 111.101ZM6.60123 49.248L9.06054 51.7073L9.06054 51.7073L6.60123 49.248ZM57.2408 53.2268L55.1083 55.9743L55.131 55.992L55.154 56.0092L57.2408 53.2268ZM61.1292 74.4773L63.9015 76.5775L63.9165 76.5577L63.9312 76.5376L61.1292 74.4773ZM56.1556 78.8178L54.6002 75.707L47.673 79.1707L54.864 82.0471L56.1556 78.8178ZM62.2143 83.9722L59.3096 85.8851L59.3367 85.9263L59.365 85.9667L62.2143 83.9722ZM41.4486 73.3781C42.675 71.9286 43.2662 70.1851 43.2662 68.3282H36.3102C36.3102 68.6416 36.2383 68.7669 36.1385 68.8849L41.4486 73.3781ZM43.2662 68.3282C43.2662 66.4731 42.6786 64.7498 41.5283 63.2858L36.0587 67.5833C36.2347 67.8073 36.3102 68.0131 36.3102 68.3282H43.2662ZM41.6874 63.5053C40.3606 61.5152 38.2995 60.6001 36.0807 60.6001V67.5561C36.2467 67.5561 36.223 67.5857 36.1078 67.528C36.0535 67.5009 36.0015 67.4652 35.9582 67.4263C35.916 67.3883 35.8984 67.3619 35.8996 67.3638L41.6874 63.5053ZM36.0807 60.6001H28.4847V67.5561H36.0807V60.6001ZM25.0068 64.0781V72.307H31.9627V64.0781H25.0068ZM28.4847 75.785H36.0807V68.829H28.4847V75.785ZM36.0807 75.785C38.1024 75.785 40.1434 75.081 41.5503 73.252L36.0368 69.0109C36.0587 68.9824 36.095 68.943 36.1458 68.9034C36.1966 68.8637 36.2448 68.8373 36.2803 68.8219C36.3506 68.7914 36.3114 68.829 36.0807 68.829V75.785ZM25.0068 87.4085V96.2704H31.9627V87.4085H25.0068ZM28.4847 99.7484H36.8945V92.7924H28.4847V99.7484ZM36.8945 99.7484C39.0961 99.7484 41.2996 98.9809 42.7737 96.9707L37.1644 92.8572C37.1715 92.8476 37.1917 92.8233 37.2253 92.7963C37.259 92.7692 37.2874 92.7544 37.2992 92.7492C37.3211 92.7396 37.2162 92.7924 36.8945 92.7924V99.7484ZM42.7515 97.0008C43.901 95.468 44.5322 93.6882 44.5322 91.749H37.5762C37.5762 92.1007 37.484 92.4308 37.1867 92.8272L42.7515 97.0008ZM44.5322 91.749V91.6586H37.5762V91.749H44.5322ZM44.5322 91.6586C44.5322 89.6299 43.8047 87.7912 42.4273 86.3079L37.33 91.0411C37.52 91.2457 37.5762 91.3964 37.5762 91.6586H44.5322ZM42.5193 86.411C41.0392 84.6842 39.0185 83.9305 36.8945 83.9305V90.8865C37.1399 90.8865 37.2313 90.9266 37.2317 90.9267C37.2338 90.9276 37.2285 90.9253 37.2221 90.9206C37.2159 90.9161 37.2215 90.9187 37.238 90.9379L42.5193 86.411ZM36.8945 83.9305H28.4847V90.8865H36.8945V83.9305ZM39.2457 108.346H8.31936V115.302H39.2457V108.346ZM8.31936 108.346C8.4198 108.346 8.57312 108.367 8.74213 108.438C8.9092 108.508 9.0147 108.595 9.06054 108.641L4.14192 113.56C5.25563 114.674 6.70477 115.302 8.31936 115.302V108.346ZM9.06054 108.641C9.10638 108.687 9.19375 108.793 9.2641 108.96C9.33526 109.129 9.3558 109.282 9.3558 109.382H2.39981C2.39981 110.997 3.0282 112.446 4.14192 113.56L9.06054 108.641ZM9.3558 109.382V50.9661H2.39981V109.382H9.3558ZM9.3558 50.9661C9.3558 51.0665 9.33526 51.2198 9.2641 51.3889C9.19375 51.5559 9.10638 51.6614 9.06054 51.7073L4.14191 46.7886C3.0282 47.9024 2.39981 49.3515 2.39981 50.9661H9.3558ZM9.06054 51.7073C9.0147 51.7531 8.90921 51.8405 8.74213 51.9108C8.57312 51.982 8.4198 52.0025 8.31936 52.0025V45.0465C6.70477 45.0465 5.25563 45.6749 4.14191 46.7887L9.06054 51.7073ZM8.31936 52.0025H38.3414V45.0465H8.31936V52.0025ZM38.3414 52.0025C46.6045 52.0025 51.9705 53.539 55.1083 55.9743L59.3732 50.4792C54.4328 46.6449 47.1992 45.0465 38.3414 45.0465V52.0025ZM55.154 56.0092C58.1798 58.2786 59.9119 61.7948 59.9119 67.2431H66.8679C66.8679 60.1521 64.5005 54.3241 59.3276 50.4444L55.154 56.0092ZM59.9119 67.2431V67.5144H66.8679V67.2431H59.9119ZM59.9119 67.5144C59.9119 69.3804 59.3863 70.9765 58.3271 72.417L63.9312 76.5376C65.8863 73.8787 66.8679 70.8328 66.8679 67.5144H59.9119ZM58.3569 72.3771C57.0983 74.0385 55.8321 75.0911 54.6002 75.707L57.7111 81.9286C60.0963 80.736 62.1458 78.895 63.9015 76.5775L58.3569 72.3771ZM54.864 82.0471C56.5266 82.7121 58.0161 83.9209 59.3096 85.8851L65.119 82.0594C63.1571 79.0802 60.6075 76.8527 57.4473 75.5886L54.864 82.0471ZM59.365 85.9667C60.6513 87.8043 61.2683 89.7628 61.2683 91.9299H68.2243C68.2243 88.3096 67.1533 84.963 65.0636 81.9777L59.365 85.9667ZM61.2683 91.9299C61.2683 97.7629 59.4429 101.603 56.2318 104.108C52.8565 106.741 47.3892 108.346 39.2457 108.346V115.302C48.1025 115.302 55.3855 113.591 60.5104 109.593C65.7995 105.466 68.2243 99.3596 68.2243 91.9299H61.2683ZM74.9519 111.101L77.4112 108.641L77.4112 108.641L74.9519 111.101ZM74.9519 49.248L77.4112 51.7073L77.4112 51.7073L74.9519 49.248ZM97.0163 49.248L94.557 51.7073L94.557 51.7073L97.0163 49.248ZM97.7397 68.2378H94.2617V71.7158H97.7397V68.2378ZM123.964 73.4826L121.922 76.2984L121.931 76.3044L121.939 76.3104L123.964 73.4826ZM123.964 106.217L121.85 103.456L121.85 103.456L123.964 106.217ZM97.2876 84.9669V81.4889H93.8096V84.9669H97.2876ZM97.2876 95.0044H93.8096V98.4824H97.2876V95.0044ZM106.782 93.4671L103.862 91.5777L103.862 91.5777L106.782 93.4671ZM106.511 86.2329L104.052 88.6922L104.097 88.7378L104.145 88.7816L106.511 86.2329ZM135.358 111.101L137.817 108.641L137.817 108.641L135.358 111.101ZM135.358 49.248L137.817 51.7073L137.817 51.7073L135.358 49.248ZM103.618 108.346H76.67V115.302H103.618V108.346ZM76.67 108.346C76.7705 108.346 76.9238 108.367 77.0928 108.438C77.2599 108.508 77.3654 108.595 77.4112 108.641L72.4926 113.56C73.6063 114.674 75.0555 115.302 76.67 115.302V108.346ZM77.4112 108.641C77.4571 108.687 77.5444 108.793 77.6148 108.96C77.6859 109.129 77.7065 109.282 77.7065 109.382H70.7505C70.7505 110.997 71.3789 112.446 72.4926 113.56L77.4112 108.641ZM77.7065 109.382V50.9661H70.7505V109.382H77.7065ZM77.7065 50.9661C77.7065 51.0665 77.6859 51.2198 77.6148 51.3889C77.5444 51.5559 77.4571 51.6614 77.4112 51.7073L72.4926 46.7886C71.3789 47.9024 70.7505 49.3515 70.7505 50.9661H77.7065ZM77.4112 51.7073C77.3654 51.7531 77.2599 51.8405 77.0928 51.9108C76.9238 51.982 76.7705 52.0025 76.67 52.0025V45.0465C75.0554 45.0465 73.6063 45.6749 72.4926 46.7887L77.4112 51.7073ZM76.67 52.0025H95.2982V45.0465H76.67V52.0025ZM95.2982 52.0025C95.1977 52.0025 95.0444 51.982 94.8754 51.9108C94.7083 51.8405 94.6028 51.7531 94.557 51.7073L99.4756 46.7887C98.3619 45.6749 96.9127 45.0465 95.2982 45.0465V52.0025ZM94.557 51.7073C94.5111 51.6614 94.4238 51.5559 94.3534 51.3889C94.2822 51.2199 94.2617 51.0665 94.2617 50.9661H101.218C101.218 49.3515 100.589 47.9024 99.4756 46.7886L94.557 51.7073ZM94.2617 50.9661V68.2378H101.218V50.9661H94.2617ZM97.7397 71.7158H103.618V64.7598H97.7397V71.7158ZM103.618 71.7158C111.953 71.7158 117.912 73.3912 121.922 76.2984L126.005 70.6668C120.37 66.5809 112.765 64.7598 103.618 64.7598V71.7158ZM121.939 76.3104C125.709 79.0102 127.81 83.2246 127.81 89.6692H134.766C134.766 81.5247 131.984 74.9481 125.989 70.6548L121.939 76.3104ZM127.81 89.6692C127.81 96.1076 125.708 100.503 121.85 103.456L126.078 108.979C131.986 104.457 134.766 97.8198 134.766 89.6692H127.81ZM121.85 103.456C117.779 106.572 111.841 108.346 103.618 108.346V115.302C112.756 115.302 120.382 113.339 126.078 108.979L121.85 103.456ZM93.8096 84.9669V95.0044H100.766V84.9669H93.8096ZM97.2876 98.4824H103.618V91.5264H97.2876V98.4824ZM103.618 98.4824C105.991 98.4824 108.272 97.5675 109.702 95.3566L103.862 91.5777C103.855 91.5894 103.863 91.5738 103.893 91.5478C103.922 91.5211 103.953 91.5019 103.974 91.4916C104.018 91.4704 103.935 91.5264 103.618 91.5264V98.4824ZM109.702 95.3566C110.807 93.6496 111.255 91.689 111.255 89.6692H104.299C104.299 90.6636 104.084 91.235 103.862 91.5777L109.702 95.3566ZM111.255 89.6692C111.255 87.5089 110.632 85.313 108.878 83.6843L104.145 88.7816C104.15 88.7863 104.153 88.7897 104.157 88.7967C104.162 88.8045 104.178 88.8295 104.197 88.8821C104.237 88.9914 104.299 89.2331 104.299 89.6692H111.255ZM108.971 83.7736C107.546 82.349 105.722 81.4889 103.618 81.4889V88.4449C103.684 88.4449 103.789 88.4289 104.052 88.6922L108.971 83.7736ZM103.618 81.4889H97.2876V88.4449H103.618V81.4889ZM155.523 108.346H137.076V115.302H155.523V108.346ZM137.076 108.346C137.176 108.346 137.33 108.367 137.499 108.438C137.666 108.508 137.771 108.595 137.817 108.641L132.898 113.56C134.012 114.674 135.461 115.302 137.076 115.302V108.346ZM137.817 108.641C137.863 108.687 137.95 108.793 138.021 108.96C138.092 109.129 138.112 109.282 138.112 109.382H131.156C131.156 110.997 131.785 112.446 132.898 113.56L137.817 108.641ZM138.112 109.382V50.9661H131.156V109.382H138.112ZM138.112 50.9661C138.112 51.0665 138.092 51.2199 138.021 51.3889C137.95 51.5559 137.863 51.6614 137.817 51.7073L132.898 46.7886C131.785 47.9024 131.156 49.3515 131.156 50.9661H138.112ZM137.817 51.7073C137.771 51.7531 137.666 51.8405 137.499 51.9108C137.33 51.982 137.176 52.0025 137.076 52.0025V45.0465C135.461 45.0465 134.012 45.6749 132.898 46.7887L137.817 51.7073ZM137.076 52.0025H155.523V45.0465H137.076V52.0025ZM155.523 52.0025C155.423 52.0025 155.269 51.982 155.1 51.9108C154.933 51.8405 154.828 51.7531 154.782 51.7073L159.7 46.7886C158.587 45.6749 157.138 45.0465 155.523 45.0465V52.0025ZM154.782 51.7073C154.736 51.6614 154.649 51.5559 154.578 51.3889C154.507 51.2199 154.487 51.0665 154.487 50.9661H161.443C161.443 49.3515 160.814 47.9024 159.7 46.7886L154.782 51.7073ZM154.487 50.9661V109.382H161.443V50.9661H154.487ZM154.487 109.382C154.487 109.282 154.507 109.129 154.578 108.96C154.649 108.793 154.736 108.687 154.782 108.641L159.7 113.56C160.814 112.446 161.443 110.997 161.443 109.382H154.487ZM154.782 108.641C154.828 108.595 154.933 108.508 155.1 108.438C155.269 108.367 155.423 108.346 155.523 108.346V115.302C157.138 115.302 158.587 114.674 159.7 113.56L154.782 108.641ZM252.25 108.84L249.143 110.403L249.201 110.518L249.268 110.629L252.25 108.84ZM251.889 111.281L249.429 108.822L249.429 108.822L251.889 111.281ZM228.92 109.744L225.75 111.176L225.791 111.266L225.836 111.353L228.92 109.744ZM218.792 87.318L221.962 85.8866L215.314 87.318H218.792ZM199.169 111.101L201.629 108.641L201.629 108.641L199.169 111.101ZM198.446 87.318H201.924L195.276 85.8866L198.446 87.318ZM188.318 109.744L191.456 111.245L191.472 111.21L191.488 111.176L188.318 109.744ZM165.259 111.281L162.618 113.545L162.792 113.748L162.995 113.922L165.259 111.281ZM164.988 108.84L167.97 110.629L168.036 110.518L168.095 110.403L164.988 108.84ZM180.089 78.8178L183.196 80.3807L183.977 78.8277L183.204 77.2707L180.089 78.8178ZM166.525 51.5087L169.64 49.9615L169.578 49.8377L169.507 49.7192L166.525 51.5087ZM166.796 49.1575L169.255 51.6168L169.255 51.6168L166.796 49.1575ZM189.132 50.5139L192.313 49.1077L192.279 49.0323L192.243 48.9585L189.132 50.5139ZM198.446 71.5836L195.265 72.9898L201.924 71.5836H198.446ZM199.169 49.248L201.629 51.7073L201.629 51.7073L199.169 49.248ZM218.792 71.5836H215.314L221.973 72.9898L218.792 71.5836ZM228.106 50.5139L224.995 48.9585L224.958 49.0323L224.925 49.1077L228.106 50.5139ZM250.351 49.1575L247.711 51.421L247.885 51.6241L248.088 51.7982L250.351 49.1575ZM250.713 51.5087L247.731 49.7192L247.66 49.8377L247.598 49.9615L250.713 51.5087ZM237.149 78.8178L234.034 77.2707L233.261 78.8277L234.042 80.3807L237.149 78.8178ZM249.268 110.629C249.026 110.225 249.044 109.938 249.044 110.015H256C256 109.128 255.837 108.057 255.233 107.05L249.268 110.629ZM249.044 110.015C249.044 109.19 249.472 108.779 249.429 108.822L254.348 113.741C255.149 112.94 256 111.685 256 110.015H249.044ZM249.429 108.822C249.564 108.687 249.753 108.552 249.987 108.459C250.216 108.367 250.411 108.346 250.532 108.346V115.302C251.935 115.302 253.291 114.797 254.348 113.741L249.429 108.822ZM250.532 108.346H232.628V115.302H250.532V108.346ZM232.628 108.346C232.419 108.346 232.281 108.325 232.199 108.306C232.121 108.288 232.091 108.271 232.091 108.271C232.09 108.27 232.091 108.271 232.093 108.272C232.095 108.274 232.094 108.273 232.09 108.269C232.084 108.262 232.051 108.226 232.004 108.135L225.836 111.353C226.477 112.581 227.42 113.626 228.688 114.337C229.934 115.036 231.295 115.302 232.628 115.302V108.346ZM232.09 108.313L221.962 85.8866L215.622 88.7495L225.75 111.176L232.09 108.313ZM215.314 87.318V109.382H222.27V87.318H215.314ZM215.314 109.382C215.314 109.282 215.335 109.129 215.406 108.96C215.476 108.793 215.564 108.687 215.609 108.641L220.528 113.56C221.642 112.446 222.27 110.997 222.27 109.382H215.314ZM215.609 108.641C215.655 108.595 215.761 108.508 215.928 108.438C216.097 108.367 216.25 108.346 216.351 108.346V115.302C217.965 115.302 219.414 114.674 220.528 113.56L215.609 108.641ZM216.351 108.346H200.887V115.302H216.351V108.346ZM200.887 108.346C200.988 108.346 201.141 108.367 201.31 108.438C201.477 108.508 201.583 108.595 201.629 108.641L196.71 113.56C197.824 114.674 199.273 115.302 200.887 115.302V108.346ZM201.629 108.641C201.674 108.687 201.762 108.793 201.832 108.96C201.903 109.129 201.924 109.282 201.924 109.382H194.968C194.968 110.997 195.596 112.446 196.71 113.56L201.629 108.641ZM201.924 109.382V87.318H194.968V109.382H201.924ZM195.276 85.8866L185.148 108.313L191.488 111.176L201.616 88.7495L195.276 85.8866ZM185.18 108.244C185.148 108.31 185.132 108.323 185.145 108.309C185.159 108.293 185.179 108.278 185.192 108.271C185.218 108.256 185.08 108.346 184.61 108.346V115.302C185.949 115.302 187.333 115.045 188.595 114.337C189.892 113.61 190.842 112.527 191.456 111.245L185.18 108.244ZM184.61 108.346H166.706V115.302H184.61V108.346ZM166.706 108.346C166.829 108.346 166.988 108.368 167.158 108.432C167.327 108.495 167.449 108.578 167.522 108.641L162.995 113.922C164.031 114.81 165.311 115.302 166.706 115.302V108.346ZM167.9 109.018C167.904 109.024 168.194 109.374 168.194 110.015H161.238C161.238 111.501 161.89 112.695 162.618 113.545L167.9 109.018ZM168.194 110.015C168.194 109.938 168.212 110.225 167.97 110.629L162.005 107.05C161.401 108.057 161.238 109.128 161.238 110.015H168.194ZM168.095 110.403L183.196 80.3807L176.982 77.255L161.881 107.277L168.095 110.403ZM183.204 77.2707L169.64 49.9615L163.41 53.0558L176.974 80.365L183.204 77.2707ZM169.507 49.7192C169.71 50.0577 169.732 50.3421 169.732 50.4235H162.776C162.776 51.349 162.978 52.3568 163.542 53.2981L169.507 49.7192ZM169.732 50.4235C169.732 50.6292 169.69 50.8717 169.586 51.1154C169.483 51.355 169.352 51.5205 169.255 51.6168L164.337 46.6982C163.367 47.6683 162.776 48.9585 162.776 50.4235H169.732ZM169.255 51.6168C169.2 51.6718 169.074 51.7792 168.868 51.8692C168.656 51.9619 168.436 52.0025 168.243 52.0025V45.0465C166.681 45.0465 165.339 45.6956 164.337 46.6982L169.255 51.6168ZM168.243 52.0025H185.515V45.0465H168.243V52.0025ZM185.515 52.0025C185.958 52.0025 186.085 52.0866 186.054 52.0694C186.039 52.0609 186.016 52.0441 185.998 52.0249C185.981 52.0074 185.993 52.0136 186.021 52.0693L192.243 48.9585C191.621 47.7155 190.676 46.6729 189.406 45.9744C188.169 45.294 186.82 45.0465 185.515 45.0465V52.0025ZM185.951 51.9202L195.265 72.9898L201.627 70.1774L192.313 49.1077L185.951 51.9202ZM201.924 71.5836V50.9661H194.968V71.5836H201.924ZM201.924 50.9661C201.924 51.0665 201.903 51.2199 201.832 51.3889C201.762 51.5559 201.674 51.6614 201.629 51.7073L196.71 46.7886C195.596 47.9024 194.968 49.3515 194.968 50.9661H201.924ZM201.629 51.7073C201.583 51.7531 201.477 51.8405 201.31 51.9108C201.141 51.982 200.988 52.0025 200.887 52.0025V45.0465C199.273 45.0465 197.824 45.6749 196.71 46.7887L201.629 51.7073ZM200.887 52.0025H216.351V45.0465H200.887V52.0025ZM216.351 52.0025C216.25 52.0025 216.097 51.982 215.928 51.9108C215.761 51.8405 215.655 51.7531 215.609 51.7073L220.528 46.7886C219.414 45.6749 217.965 45.0465 216.351 45.0465V52.0025ZM215.609 51.7073C215.564 51.6614 215.476 51.5559 215.406 51.3889C215.335 51.2199 215.314 51.0665 215.314 50.9661H222.27C222.27 49.3515 221.642 47.9024 220.528 46.7886L215.609 51.7073ZM215.314 50.9661V71.5836H222.27V50.9661H215.314ZM221.973 72.9898L231.287 51.9202L224.925 49.1077L215.611 70.1774L221.973 72.9898ZM231.217 52.0694C231.245 52.0136 231.257 52.0074 231.24 52.0249C231.222 52.0441 231.199 52.0609 231.184 52.0694C231.153 52.0866 231.28 52.0025 231.723 52.0025V45.0465C230.418 45.0465 229.069 45.294 227.832 45.9744C226.562 46.6729 225.617 47.7155 224.995 48.9585L231.217 52.0694ZM231.723 52.0025H248.995V45.0465H231.723V52.0025ZM248.995 52.0025C248.803 52.0025 248.544 51.9622 248.27 51.8345C247.999 51.7078 247.815 51.5429 247.711 51.421L252.992 46.8941C251.988 45.7228 250.581 45.0465 248.995 45.0465V52.0025ZM248.088 51.7982C248.009 51.7303 247.851 51.5713 247.715 51.3007C247.574 51.0178 247.506 50.7099 247.506 50.4235H254.462C254.462 48.7656 253.677 47.4273 252.615 46.5168L248.088 51.7982ZM247.506 50.4235C247.506 50.3421 247.528 50.0577 247.731 49.7192L253.695 53.2981C254.26 52.3568 254.462 51.349 254.462 50.4235H247.506ZM247.598 49.9615L234.034 77.2707L240.264 80.365L253.828 53.0558L247.598 49.9615ZM234.042 80.3807L249.143 110.403L255.357 107.277L240.256 77.255L234.042 80.3807ZM279.85 49.248L282.309 46.7887L282.309 46.7886L279.85 49.248ZM280.573 75.6529H277.095V88.0313L283.542 77.4643L280.573 75.6529ZM295.856 50.6044L298.825 52.4158L298.855 52.3663L298.883 52.3157L295.856 50.6044ZM295.765 111.101L298.225 108.641L298.225 108.641L295.765 111.101ZM295.042 86.6851H298.52V75.1415L292.143 84.7637L295.042 86.6851ZM279.759 109.744L276.86 107.823L276.853 107.833L276.846 107.844L279.759 109.744ZM260.046 111.101L262.506 108.641L262.506 108.641L260.046 111.101ZM260.046 49.248L262.506 51.7073L262.506 51.7073L260.046 49.248ZM261.764 52.0025H278.132V45.0465H261.764V52.0025ZM278.132 52.0025C278.031 52.0025 277.878 51.982 277.709 51.9108C277.542 51.8405 277.436 51.7531 277.391 51.7073L282.309 46.7886C281.196 45.6749 279.746 45.0465 278.132 45.0465V52.0025ZM277.391 51.7073C277.345 51.6614 277.257 51.5559 277.187 51.3889C277.116 51.2198 277.095 51.0665 277.095 50.9661H284.051C284.051 49.3515 283.423 47.9024 282.309 46.7887L277.391 51.7073ZM277.095 50.9661V75.6529H284.051V50.9661H277.095ZM283.542 77.4643L298.825 52.4158L292.887 48.7929L277.604 73.8414L283.542 77.4643ZM298.883 52.3157C298.947 52.2028 298.997 52.144 299.023 52.1173C299.048 52.0925 299.062 52.0832 299.072 52.0778C299.079 52.0739 299.201 52.0025 299.563 52.0025V45.0465C296.714 45.0465 294.273 46.3368 292.828 48.893L298.883 52.3157ZM299.563 52.0025H313.851V45.0465H299.563V52.0025ZM313.851 52.0025C313.75 52.0025 313.597 51.982 313.428 51.9108C313.261 51.8405 313.155 51.7531 313.11 51.7073L318.028 46.7886C316.914 45.6749 315.465 45.0465 313.851 45.0465V52.0025ZM313.11 51.7073C313.064 51.6614 312.976 51.5559 312.906 51.3889C312.835 51.2199 312.814 51.0665 312.814 50.9661H319.77C319.77 49.3515 319.142 47.9024 318.028 46.7886L313.11 51.7073ZM312.814 50.9661V109.382H319.77V50.9661H312.814ZM312.814 109.382C312.814 109.282 312.835 109.129 312.906 108.96C312.976 108.793 313.064 108.687 313.11 108.641L318.028 113.56C319.142 112.446 319.77 110.997 319.77 109.382H312.814ZM313.11 108.641C313.155 108.595 313.261 108.508 313.428 108.438C313.597 108.367 313.75 108.346 313.851 108.346V115.302C315.465 115.302 316.914 114.674 318.028 113.56L313.11 108.641ZM313.851 108.346H297.483V115.302H313.851V108.346ZM297.483 108.346C297.584 108.346 297.737 108.367 297.906 108.438C298.073 108.508 298.179 108.595 298.225 108.641L293.306 113.56C294.42 114.674 295.869 115.302 297.483 115.302V108.346ZM298.225 108.641C298.27 108.687 298.358 108.793 298.428 108.96C298.499 109.129 298.52 109.282 298.52 109.382H291.564C291.564 110.997 292.192 112.446 293.306 113.56L298.225 108.641ZM298.52 109.382V86.6851H291.564V109.382H298.52ZM292.143 84.7637L276.86 107.823L282.659 111.665L297.941 88.6064L292.143 84.7637ZM276.846 107.844C276.649 108.147 276.505 108.241 276.453 108.271C276.408 108.296 276.304 108.346 276.052 108.346V115.302C278.872 115.302 281.17 113.949 282.673 111.644L276.846 107.844ZM276.052 108.346H261.764V115.302H276.052V108.346ZM261.764 108.346C261.865 108.346 262.018 108.367 262.187 108.438C262.354 108.508 262.46 108.595 262.506 108.641L257.587 113.56C258.701 114.674 260.15 115.302 261.764 115.302V108.346ZM262.506 108.641C262.551 108.687 262.639 108.793 262.709 108.96C262.78 109.129 262.801 109.282 262.801 109.382H255.845C255.845 110.997 256.473 112.446 257.587 113.56L262.506 108.641ZM262.801 109.382V50.9661H255.845V109.382H262.801ZM262.801 50.9661C262.801 51.0665 262.78 51.2198 262.709 51.3889C262.639 51.5559 262.551 51.6614 262.506 51.7073L257.587 46.7886C256.473 47.9024 255.845 49.3515 255.845 50.9661H262.801ZM262.506 51.7073C262.46 51.7531 262.354 51.8405 262.187 51.9108C262.018 51.982 261.865 52.0025 261.764 52.0025V45.0465C260.15 45.0465 258.701 45.6749 257.587 46.7887L262.506 51.7073ZM360.942 71.1315L358.287 68.8849L358.235 68.9467L358.186 69.0109L360.942 71.1315ZM360.942 65.4345L358.049 67.3638L358.124 67.4766L358.208 67.5833L360.942 65.4345ZM350.634 64.0781V60.6001H347.156V64.0781H350.634ZM350.634 72.307H347.156V75.785H350.634V72.307ZM350.634 87.4085V83.9305H347.156V87.4085H350.634ZM350.634 96.2704H347.156V99.7484H350.634V96.2704ZM362.118 94.914L359.336 92.8272L359.324 92.8421L359.313 92.8572L362.118 94.914ZM362.028 88.6745L359.387 90.9379L359.432 90.9904L359.479 91.0411L362.028 88.6745ZM328.75 111.101L331.209 108.641L331.209 108.641L328.75 111.101ZM328.75 49.248L331.209 51.7073L331.209 51.7073L328.75 49.248ZM379.39 53.2268L377.257 55.9743L377.28 55.992L377.303 56.0092L379.39 53.2268ZM383.278 74.4773L386.05 76.5775L386.065 76.5577L386.08 76.5376L383.278 74.4773ZM378.305 78.8178L376.749 75.707L369.822 79.1707L377.013 82.0471L378.305 78.8178ZM384.363 83.9722L381.459 85.8851L381.486 85.9263L381.514 85.9667L384.363 83.9722ZM363.597 73.3781C364.824 71.9286 365.415 70.1851 365.415 68.3282H358.459C358.459 68.6416 358.387 68.7669 358.287 68.8849L363.597 73.3781ZM365.415 68.3282C365.415 66.4731 364.828 64.7498 363.677 63.2858L358.208 67.5833C358.384 67.8073 358.459 68.0131 358.459 68.3282H365.415ZM363.836 63.5053C362.51 61.5152 360.448 60.6001 358.23 60.6001V67.5561C358.396 67.5561 358.372 67.5857 358.257 67.528C358.202 67.5009 358.15 67.4652 358.107 67.4263C358.065 67.3883 358.047 67.3619 358.049 67.3638L363.836 63.5053ZM358.23 60.6001H350.634V67.5561H358.23V60.6001ZM347.156 64.0781V72.307H354.112V64.0781H347.156ZM350.634 75.785H358.23V68.829H350.634V75.785ZM358.23 75.785C360.251 75.785 362.292 75.081 363.699 73.252L358.186 69.0109C358.208 68.9824 358.244 68.943 358.295 68.9034C358.346 68.8637 358.394 68.8373 358.429 68.8219C358.5 68.7914 358.46 68.829 358.23 68.829V75.785ZM347.156 87.4085V96.2704H354.112V87.4085H347.156ZM350.634 99.7484H359.043V92.7924H350.634V99.7484ZM359.043 99.7484C361.245 99.7484 363.449 98.9809 364.923 96.9707L359.313 92.8572C359.32 92.8476 359.341 92.8233 359.374 92.7963C359.408 92.7692 359.436 92.7544 359.448 92.7492C359.47 92.7396 359.365 92.7924 359.043 92.7924V99.7484ZM364.9 97.0008C366.05 95.468 366.681 93.6882 366.681 91.749H359.725C359.725 92.1007 359.633 92.4308 359.336 92.8272L364.9 97.0008ZM366.681 91.749V91.6586H359.725V91.749H366.681ZM366.681 91.6586C366.681 89.6299 365.954 87.7912 364.576 86.3079L359.479 91.0411C359.669 91.2457 359.725 91.3964 359.725 91.6586H366.681ZM364.668 86.411C363.188 84.6842 361.167 83.9305 359.043 83.9305V90.8865C359.289 90.8865 359.38 90.9266 359.381 90.9267C359.383 90.9276 359.377 90.9253 359.371 90.9206C359.365 90.9161 359.37 90.9187 359.387 90.9379L364.668 86.411ZM359.043 83.9305H350.634V90.8865H359.043V83.9305ZM361.395 108.346H330.468V115.302H361.395V108.346ZM330.468 108.346C330.569 108.346 330.722 108.367 330.891 108.438C331.058 108.508 331.164 108.595 331.209 108.641L326.291 113.56C327.405 114.674 328.854 115.302 330.468 115.302V108.346ZM331.209 108.641C331.255 108.687 331.343 108.793 331.413 108.96C331.484 109.129 331.505 109.282 331.505 109.382H324.549C324.549 110.997 325.177 112.446 326.291 113.56L331.209 108.641ZM331.505 109.382V50.9661H324.549V109.382H331.505ZM331.505 50.9661C331.505 51.0665 331.484 51.2198 331.413 51.3889C331.343 51.5559 331.255 51.6614 331.209 51.7073L326.291 46.7886C325.177 47.9024 324.549 49.3515 324.549 50.9661H331.505ZM331.209 51.7073C331.164 51.7531 331.058 51.8405 330.891 51.9108C330.722 51.982 330.569 52.0025 330.468 52.0025V45.0465C328.854 45.0465 327.405 45.6749 326.291 46.7887L331.209 51.7073ZM330.468 52.0025H360.49V45.0465H330.468V52.0025ZM360.49 52.0025C368.753 52.0025 374.119 53.539 377.257 55.9743L381.522 50.4792C376.582 46.6449 369.348 45.0465 360.49 45.0465V52.0025ZM377.303 56.0092C380.329 58.2786 382.061 61.7948 382.061 67.2431H389.017C389.017 60.1521 386.649 54.3241 381.476 50.4444L377.303 56.0092ZM382.061 67.2431V67.5144H389.017V67.2431H382.061ZM382.061 67.5144C382.061 69.3804 381.535 70.9765 380.476 72.417L386.08 76.5376C388.035 73.8787 389.017 70.8328 389.017 67.5144H382.061ZM380.506 72.3771C379.247 74.0385 377.981 75.0911 376.749 75.707L379.86 81.9286C382.245 80.736 384.295 78.895 386.05 76.5775L380.506 72.3771ZM377.013 82.0471C378.676 82.7121 380.165 83.9209 381.459 85.8851L387.268 82.0594C385.306 79.0802 382.756 76.8527 379.596 75.5886L377.013 82.0471ZM381.514 85.9667C382.8 87.8043 383.417 89.7628 383.417 91.9299H390.373C390.373 88.3096 389.302 84.963 387.213 81.9777L381.514 85.9667ZM383.417 91.9299C383.417 97.7629 381.592 101.603 378.381 104.108C375.005 106.741 369.538 108.346 361.395 108.346V115.302C370.251 115.302 377.534 113.591 382.659 109.593C387.948 105.466 390.373 99.3596 390.373 91.9299H383.417ZM439.873 51.5087L436.518 52.4238L436.55 52.5413L436.59 52.6562L439.873 51.5087ZM460.039 109.202L463.338 108.102L463.33 108.078L463.322 108.054L460.039 109.202ZM459.496 111.281L457.037 108.822L457.037 108.822L459.496 111.281ZM437.884 109.563L441.156 108.385L441.152 108.375L437.884 109.563ZM435.713 103.595L438.982 102.406L438.15 100.117H435.713V103.595ZM416.272 103.595V100.117H413.835L413.003 102.406L416.272 103.595ZM414.101 109.563L410.833 108.375L410.829 108.385L414.101 109.563ZM392.399 111.281L389.758 113.545L389.932 113.748L390.135 113.922L392.399 111.281ZM391.946 109.202L388.663 108.054L388.655 108.078L388.647 108.102L391.946 109.202ZM412.112 51.5087L415.395 52.6562L415.435 52.5413L415.467 52.4238L412.112 51.5087ZM420.883 85.9616L417.553 84.959L416.204 89.4396H420.883V85.9616ZM431.102 85.9616V89.4396H435.805L434.427 84.9426L431.102 85.9616ZM425.947 69.1421L429.273 68.123L425.918 57.1758L422.617 68.1394L425.947 69.1421ZM416.181 52.0025H435.804V45.0465H416.181V52.0025ZM435.804 52.0025C436.364 52.0025 436.463 52.1274 436.392 52.0752C436.365 52.0556 436.362 52.0426 436.379 52.0703C436.401 52.1048 436.459 52.2086 436.518 52.4238L443.229 50.5935C442.799 49.0166 441.951 47.5258 440.506 46.4659C439.078 45.419 437.414 45.0465 435.804 45.0465V52.0025ZM436.59 52.6562L456.755 110.349L463.322 108.054L443.156 50.3611L436.59 52.6562ZM456.739 110.301C456.692 110.161 456.67 110.054 456.66 110.001C456.649 109.944 456.646 109.911 456.646 109.909C456.645 109.906 456.647 109.921 456.648 109.957C456.65 109.992 456.651 110.041 456.651 110.106H463.607C463.607 109.652 463.59 108.858 463.338 108.102L456.739 110.301ZM456.651 110.106C456.651 109.593 456.803 109.218 456.908 109.022C457.007 108.838 457.084 108.774 457.037 108.822L461.955 113.741C462.627 113.069 463.607 111.835 463.607 110.106H456.651ZM457.037 108.822C457.172 108.687 457.361 108.552 457.594 108.459C457.823 108.367 458.019 108.346 458.14 108.346V115.302C459.542 115.302 460.899 114.797 461.955 113.741L457.037 108.822ZM458.14 108.346H441.41V115.302H458.14V108.346ZM441.41 108.346C441.197 108.346 441.075 108.323 441.024 108.311C440.978 108.299 440.997 108.297 441.049 108.331C441.105 108.366 441.151 108.411 441.178 108.448C441.203 108.48 441.187 108.471 441.156 108.385L434.611 110.741C435.102 112.105 435.97 113.337 437.295 114.187C438.587 115.015 440.034 115.302 441.41 115.302V108.346ZM441.152 108.375L438.982 102.406L432.445 104.784L434.615 110.752L441.152 108.375ZM435.713 100.117H416.272V107.073H435.713V100.117ZM413.003 102.406L410.833 108.375L417.37 110.752L419.54 104.784L413.003 102.406ZM410.829 108.385C410.798 108.471 410.782 108.48 410.807 108.448C410.834 108.411 410.88 108.366 410.936 108.331C410.988 108.297 411.007 108.299 410.961 108.311C410.91 108.323 410.788 108.346 410.575 108.346V115.302C411.951 115.302 413.398 115.015 414.69 114.187C416.015 113.337 416.883 112.105 417.374 110.741L410.829 108.385ZM410.575 108.346H393.845V115.302H410.575V108.346ZM393.845 108.346C393.969 108.346 394.128 108.368 394.298 108.432C394.467 108.495 394.589 108.578 394.662 108.641L390.135 113.922C391.171 114.81 392.451 115.302 393.845 115.302V108.346ZM395.039 109.018C395.011 108.984 395.073 109.049 395.15 109.214C395.23 109.388 395.334 109.696 395.334 110.106H388.378C388.378 111.643 389.133 112.816 389.758 113.545L395.039 109.018ZM395.334 110.106C395.334 110.041 395.335 109.992 395.337 109.957C395.338 109.921 395.34 109.906 395.339 109.909C395.339 109.911 395.336 109.944 395.325 110.001C395.315 110.054 395.293 110.161 395.246 110.301L388.647 108.102C388.395 108.858 388.378 109.652 388.378 110.106H395.334ZM395.23 110.349L415.395 52.6562L408.829 50.3611L388.663 108.054L395.23 110.349ZM415.467 52.4238C415.526 52.2086 415.584 52.1048 415.606 52.0703C415.623 52.0426 415.62 52.0556 415.593 52.0752C415.522 52.1274 415.621 52.0025 416.181 52.0025V45.0465C414.571 45.0465 412.907 45.419 411.479 46.4659C410.034 47.5258 409.186 49.0166 408.756 50.5935L415.467 52.4238ZM420.883 89.4396H431.102V82.4836H420.883V89.4396ZM434.427 84.9426L429.273 68.123L422.622 70.1611L427.776 86.9807L434.427 84.9426ZM422.617 68.1394L417.553 84.959L424.214 86.9643L429.278 70.1447L422.617 68.1394ZM487.904 49.248L490.364 46.7887L490.364 46.7886L487.904 49.248ZM488.628 75.6529H485.15V88.0313L491.597 77.4643L488.628 75.6529ZM503.91 50.6044L506.879 52.4158L506.909 52.3663L506.938 52.3157L503.91 50.6044ZM503.82 111.101L506.279 108.641L506.279 108.641L503.82 111.101ZM503.096 86.6851H506.574V75.1415L500.197 84.7637L503.096 86.6851ZM487.814 109.744L484.915 107.823L484.908 107.833L484.901 107.844L487.814 109.744ZM468.101 111.101L470.56 108.641L470.56 108.641L468.101 111.101ZM468.101 49.248L470.56 51.7073L470.56 51.7073L468.101 49.248ZM507.618 40.2052L509.991 42.7478L510.006 42.7338L510.02 42.7197L507.618 40.2052ZM483.654 40.1148L481.252 42.6293L481.252 42.6293L483.654 40.1148ZM469.819 52.0025H486.186V45.0465H469.819V52.0025ZM486.186 52.0025C486.086 52.0025 485.933 51.982 485.764 51.9108C485.596 51.8405 485.491 51.7531 485.445 51.7073L490.364 46.7886C489.25 45.6749 487.801 45.0465 486.186 45.0465V52.0025ZM485.445 51.7073C485.399 51.6614 485.312 51.5559 485.242 51.3889C485.17 51.2198 485.15 51.0665 485.15 50.9661H492.106C492.106 49.3515 491.477 47.9024 490.364 46.7887L485.445 51.7073ZM485.15 50.9661V75.6529H492.106V50.9661H485.15ZM491.597 77.4643L506.879 52.4158L500.941 48.7929L485.659 73.8414L491.597 77.4643ZM506.938 52.3157C507.002 52.2028 507.052 52.144 507.078 52.1173C507.102 52.0925 507.117 52.0832 507.126 52.0778C507.133 52.0739 507.256 52.0025 507.618 52.0025V45.0465C504.768 45.0465 502.327 46.3368 500.882 48.893L506.938 52.3157ZM507.618 52.0025H521.905V45.0465H507.618V52.0025ZM521.905 52.0025C521.805 52.0025 521.651 51.982 521.482 51.9108C521.315 51.8405 521.21 51.7531 521.164 51.7073L526.083 46.7886C524.969 45.6749 523.52 45.0465 521.905 45.0465V52.0025ZM521.164 51.7073C521.118 51.6614 521.031 51.5559 520.961 51.3889C520.889 51.2199 520.869 51.0665 520.869 50.9661H527.825C527.825 49.3515 527.196 47.9024 526.083 46.7886L521.164 51.7073ZM520.869 50.9661V109.382H527.825V50.9661H520.869ZM520.869 109.382C520.869 109.282 520.889 109.129 520.961 108.96C521.031 108.793 521.118 108.687 521.164 108.641L526.083 113.56C527.196 112.446 527.825 110.997 527.825 109.382H520.869ZM521.164 108.641C521.21 108.595 521.315 108.508 521.482 108.438C521.651 108.367 521.805 108.346 521.905 108.346V115.302C523.52 115.302 524.969 114.674 526.083 113.56L521.164 108.641ZM521.905 108.346H505.538V115.302H521.905V108.346ZM505.538 108.346C505.638 108.346 505.792 108.367 505.961 108.438C506.128 108.508 506.233 108.595 506.279 108.641L501.36 113.56C502.474 114.674 503.923 115.302 505.538 115.302V108.346ZM506.279 108.641C506.325 108.687 506.412 108.793 506.483 108.96C506.554 109.129 506.574 109.282 506.574 109.382H499.618C499.618 110.997 500.247 112.446 501.36 113.56L506.279 108.641ZM506.574 109.382V86.6851H499.618V109.382H506.574ZM500.197 84.7637L484.915 107.823L490.713 111.665L505.995 88.6064L500.197 84.7637ZM484.901 107.844C484.704 108.147 484.56 108.241 484.507 108.271C484.463 108.296 484.359 108.346 484.106 108.346V115.302C486.926 115.302 489.224 113.949 490.727 111.644L484.901 107.844ZM484.106 108.346H469.819V115.302H484.106V108.346ZM469.819 108.346C469.919 108.346 470.073 108.367 470.242 108.438C470.409 108.508 470.514 108.595 470.56 108.641L465.641 113.56C466.755 114.674 468.204 115.302 469.819 115.302V108.346ZM470.56 108.641C470.606 108.687 470.693 108.793 470.764 108.96C470.835 109.129 470.855 109.282 470.855 109.382H463.899C463.899 110.997 464.528 112.446 465.641 113.56L470.56 108.641ZM470.855 109.382V50.9661H463.899V109.382H470.855ZM470.855 50.9661C470.855 51.0665 470.835 51.2198 470.764 51.3889C470.693 51.5559 470.606 51.6614 470.56 51.7073L465.641 46.7886C464.528 47.9024 463.899 49.3515 463.899 50.9661H470.855ZM470.56 51.7073C470.514 51.7531 470.409 51.8405 470.242 51.9108C470.073 51.982 469.919 52.0025 469.819 52.0025V45.0465C468.204 45.0465 466.755 45.6749 465.641 46.7887L470.56 51.7073ZM502.776 29.8964C502.776 29.8968 502.776 29.9284 502.768 29.9856C502.76 30.0431 502.743 30.1324 502.705 30.2446C502.626 30.4809 502.469 30.7854 502.187 31.0671C501.905 31.3488 501.601 31.5064 501.365 31.5852C501.252 31.6226 501.163 31.64 501.106 31.6482C501.048 31.6563 501.017 31.6563 501.016 31.6563V24.7003C499.908 24.7003 498.437 24.9799 497.269 26.1485C496.1 27.3172 495.82 28.7876 495.82 29.8964H502.776ZM501.016 31.6563H509.969V24.7003H501.016V31.6563ZM509.969 31.6563C509.968 31.6563 509.937 31.6563 509.88 31.6482C509.822 31.64 509.733 31.6226 509.621 31.5852C509.384 31.5064 509.08 31.3488 508.798 31.0671C508.516 30.7854 508.359 30.4809 508.28 30.2446C508.243 30.1324 508.225 30.0431 508.217 29.9856C508.209 29.9284 508.209 29.8968 508.209 29.8964H515.165C515.165 28.7876 514.885 27.3172 513.717 26.1485C512.548 24.9799 511.078 24.7003 509.969 24.7003V31.6563ZM508.209 29.8964C508.209 33.3732 507.142 35.8492 505.215 37.6906L510.02 42.7197C513.519 39.3766 515.165 34.9801 515.165 29.8964H508.209ZM505.245 37.6626C503.407 39.3779 500.392 40.5252 495.591 40.5252V47.4811C501.4 47.4811 506.403 46.0964 509.991 42.7478L505.245 37.6626ZM495.591 40.5252C490.882 40.5252 487.903 39.364 486.057 37.6002L481.252 42.6293C484.831 46.05 489.81 47.4811 495.591 47.4811V40.5252ZM486.057 37.6002C484.12 35.749 483.063 33.2967 483.063 29.8964H476.107C476.107 34.936 477.763 39.296 481.252 42.6293L486.057 37.6002ZM483.063 29.8964C483.063 29.8968 483.063 29.9284 483.055 29.9856C483.047 30.0431 483.029 30.1324 482.992 30.2446C482.913 30.4809 482.756 30.7854 482.474 31.0671C482.192 31.3488 481.888 31.5064 481.651 31.5852C481.539 31.6226 481.45 31.64 481.392 31.6482C481.335 31.6563 481.304 31.6563 481.303 31.6563V24.7003C480.194 24.7003 478.724 24.9799 477.555 26.1485C476.387 27.3172 476.107 28.7876 476.107 29.8964H483.063ZM481.303 31.6563H490.256V24.7003H481.303V31.6563ZM490.256 31.6563C490.255 31.6563 490.224 31.6563 490.166 31.6482C490.109 31.64 490.02 31.6226 489.907 31.5852C489.671 31.5064 489.367 31.3488 489.085 31.0671C488.803 30.7854 488.646 30.4809 488.567 30.2446C488.529 30.1324 488.512 30.0431 488.504 29.9856C488.496 29.9284 488.496 29.8968 488.496 29.8964H495.452C495.452 28.7876 495.172 27.3172 494.003 26.1485C492.835 24.9799 491.364 24.7003 490.256 24.7003V31.6563ZM488.496 29.8964C488.496 31.8724 488.836 33.9827 490.065 35.6722C491.444 37.5675 493.496 38.3479 495.591 38.3479V31.392C495.384 31.392 495.369 31.3568 495.457 31.3974C495.565 31.4467 495.652 31.5278 495.691 31.5809C495.714 31.6131 495.649 31.5387 495.58 31.2529C495.51 30.9649 495.452 30.5258 495.452 29.8964H488.496ZM495.591 38.3479C497.683 38.3479 499.753 37.592 501.16 35.7052C502.423 34.0102 502.776 31.8854 502.776 29.8964H495.82C495.82 30.5206 495.761 30.9528 495.691 31.2336C495.622 31.511 495.558 31.5808 495.583 31.5479C495.622 31.4951 495.704 31.424 495.793 31.3841C495.862 31.3531 495.823 31.392 495.591 31.392V38.3479ZM569.901 73.2113L567.442 75.6706L567.442 75.6706L569.901 73.2113ZM569.901 89.4883L567.442 87.029L567.442 87.029L569.901 89.4883ZM534.544 89.4883L532.085 91.9476L532.085 91.9476L534.544 89.4883ZM534.544 73.2113L537.003 75.6706L537.003 75.6706L534.544 73.2113ZM536.262 75.9659H568.183V69.0099H536.262V75.9659ZM568.183 75.9659C568.083 75.9659 567.929 75.9454 567.76 75.8742C567.593 75.8038 567.488 75.7165 567.442 75.6706L572.361 70.752C571.247 69.6383 569.798 69.0099 568.183 69.0099V75.9659ZM567.442 75.6706C567.396 75.6248 567.309 75.5193 567.238 75.3522C567.167 75.1832 567.147 75.0299 567.147 74.9294H574.103C574.103 73.3149 573.474 71.8657 572.361 70.752L567.442 75.6706ZM567.147 74.9294V87.7702H574.103V74.9294H567.147ZM567.147 87.7702C567.147 87.6697 567.167 87.5164 567.238 87.3474C567.309 87.1803 567.396 87.0748 567.442 87.029L572.361 91.9476C573.474 90.8339 574.103 89.3848 574.103 87.7702H567.147ZM567.442 87.029C567.488 86.9832 567.593 86.8958 567.76 86.8254C567.929 86.7543 568.083 86.7337 568.183 86.7337V93.6897C569.798 93.6897 571.247 93.0613 572.361 91.9476L567.442 87.029ZM568.183 86.7337H536.262V93.6897H568.183V86.7337ZM536.262 86.7337C536.363 86.7337 536.516 86.7543 536.685 86.8254C536.852 86.8958 536.957 86.9832 537.003 87.029L532.085 91.9476C533.198 93.0613 534.648 93.6897 536.262 93.6897V86.7337ZM537.003 87.029C537.049 87.0748 537.136 87.1803 537.207 87.3474C537.278 87.5164 537.299 87.6697 537.299 87.7702H530.343C530.343 89.3848 530.971 90.8339 532.085 91.9476L537.003 87.029ZM537.299 87.7702V74.9294H530.343V87.7702H537.299ZM537.299 74.9294C537.299 75.0299 537.278 75.1832 537.207 75.3522C537.136 75.5193 537.049 75.6248 537.003 75.6706L532.085 70.752C530.971 71.8657 530.343 73.3149 530.343 74.9294H537.299ZM537.003 75.6706C536.957 75.7165 536.852 75.8038 536.685 75.8742C536.516 75.9454 536.363 75.9659 536.262 75.9659V69.0099C534.648 69.0099 533.198 69.6383 532.085 70.752L537.003 75.6706ZM639.377 108.84L636.386 110.615L636.391 110.622L636.395 110.629L639.377 108.84ZM639.016 111.281L636.556 108.822L636.556 108.822L639.016 111.281ZM613.334 109.744L616.418 108.135L616.394 108.09L616.369 108.046L613.334 109.744ZM602.302 90.0309L605.337 88.3324L598.824 76.6943V90.0309H602.302ZM601.578 111.101L604.038 113.56L604.038 113.56L601.578 111.101ZM580.871 111.101L583.33 108.641L583.33 108.641L580.871 111.101ZM580.871 49.248L583.33 51.7073L583.33 51.7073L580.871 49.248ZM601.578 49.248L604.038 46.7887L604.038 46.7886L601.578 49.248ZM602.302 68.8708H598.824V82.2697L605.341 70.5624L602.302 68.8708ZM612.52 50.5139L615.559 52.2056L615.597 52.1382L615.631 52.0694L612.52 50.5139ZM637.478 49.1575L634.838 51.421L635.012 51.6241L635.215 51.7982L637.478 49.1575ZM637.84 51.5087L634.858 49.7192L634.852 49.728L637.84 51.5087ZM621.563 78.8178L618.575 77.0372L617.516 78.8139L618.572 80.5927L621.563 78.8178ZM636.395 110.629C636.152 110.225 636.171 109.938 636.171 110.015H643.127C643.127 109.128 642.964 108.057 642.36 107.05L636.395 110.629ZM636.171 110.015C636.171 109.19 636.599 108.779 636.556 108.822L641.475 113.741C642.276 112.94 643.127 111.685 643.127 110.015H636.171ZM636.556 108.822C636.691 108.687 636.88 108.552 637.113 108.459C637.343 108.367 637.538 108.346 637.659 108.346V115.302C639.062 115.302 640.418 114.797 641.475 113.741L636.556 108.822ZM637.659 108.346H617.042V115.302H637.659V108.346ZM617.042 108.346C616.833 108.346 616.695 108.325 616.614 108.306C616.535 108.288 616.505 108.271 616.505 108.271C616.504 108.27 616.505 108.271 616.507 108.272C616.509 108.274 616.508 108.273 616.504 108.269C616.498 108.262 616.465 108.226 616.418 108.135L610.251 111.353C610.891 112.581 611.834 113.626 613.102 114.337C614.348 115.036 615.709 115.302 617.042 115.302V108.346ZM616.369 108.046L605.337 88.3324L599.267 91.7294L610.299 111.443L616.369 108.046ZM598.824 90.0309V109.382H605.78V90.0309H598.824ZM598.824 109.382C598.824 109.282 598.844 109.129 598.916 108.96C598.986 108.793 599.073 108.687 599.119 108.641L604.038 113.56C605.152 112.446 605.78 110.997 605.78 109.382H598.824ZM599.119 108.641C599.165 108.595 599.27 108.508 599.438 108.438C599.607 108.367 599.76 108.346 599.86 108.346V115.302C601.475 115.302 602.924 114.674 604.038 113.56L599.119 108.641ZM599.86 108.346H582.589V115.302H599.86V108.346ZM582.589 108.346C582.689 108.346 582.842 108.367 583.011 108.438C583.178 108.508 583.284 108.595 583.33 108.641L578.411 113.56C579.525 114.674 580.974 115.302 582.589 115.302V108.346ZM583.33 108.641C583.376 108.687 583.463 108.793 583.533 108.96C583.605 109.129 583.625 109.282 583.625 109.382H576.669C576.669 110.997 577.297 112.446 578.411 113.56L583.33 108.641ZM583.625 109.382V50.9661H576.669V109.382H583.625ZM583.625 50.9661C583.625 51.0665 583.605 51.2198 583.533 51.3889C583.463 51.5559 583.376 51.6614 583.33 51.7073L578.411 46.7886C577.297 47.9024 576.669 49.3515 576.669 50.9661H583.625ZM583.33 51.7073C583.284 51.7531 583.178 51.8405 583.011 51.9108C582.842 51.982 582.689 52.0025 582.589 52.0025V45.0465C580.974 45.0465 579.525 45.6749 578.411 46.7887L583.33 51.7073ZM582.589 52.0025H599.86V45.0465H582.589V52.0025ZM599.86 52.0025C599.76 52.0025 599.607 51.982 599.438 51.9108C599.27 51.8405 599.165 51.7531 599.119 51.7073L604.038 46.7886C602.924 45.6749 601.475 45.0465 599.86 45.0465V52.0025ZM599.119 51.7073C599.073 51.6614 598.986 51.5559 598.916 51.3889C598.844 51.2198 598.824 51.0665 598.824 50.9661H605.78C605.78 49.3515 605.152 47.9024 604.038 46.7887L599.119 51.7073ZM598.824 50.9661V68.8708H605.78V50.9661H598.824ZM605.341 70.5624L615.559 52.2056L609.481 48.8223L599.263 67.1792L605.341 70.5624ZM615.631 52.0694C615.659 52.0136 615.671 52.0074 615.654 52.0249C615.636 52.0441 615.613 52.0609 615.598 52.0694C615.567 52.0866 615.694 52.0025 616.137 52.0025V45.0465C614.832 45.0465 613.483 45.294 612.246 45.9744C610.976 46.6729 610.031 47.7155 609.409 48.9585L615.631 52.0694ZM616.137 52.0025H636.122V45.0465H616.137V52.0025ZM636.122 52.0025C635.93 52.0025 635.671 51.9622 635.397 51.8345C635.126 51.7078 634.942 51.5429 634.838 51.421L640.119 46.8941C639.115 45.7228 637.708 45.0465 636.122 45.0465V52.0025ZM635.215 51.7982C635.136 51.7303 634.978 51.5713 634.842 51.3007C634.701 51.0178 634.633 50.7099 634.633 50.4235H641.589C641.589 48.7656 640.804 47.4273 639.742 46.5168L635.215 51.7982ZM634.633 50.4235C634.633 50.3421 634.655 50.0577 634.858 49.7192L640.822 53.2981C641.387 52.3568 641.589 51.349 641.589 50.4235H634.633ZM634.852 49.728L618.575 77.0372L624.551 80.5985L640.828 53.2893L634.852 49.728ZM618.572 80.5927L636.386 110.615L642.368 107.065L624.554 77.043L618.572 80.5927ZM689.962 51.5087L686.607 52.4238L686.639 52.5413L686.679 52.6562L689.962 51.5087ZM710.128 109.202L713.427 108.102L713.419 108.078L713.411 108.054L710.128 109.202ZM709.585 111.281L707.126 108.822L707.126 108.822L709.585 111.281ZM687.973 109.563L691.245 108.385L691.242 108.375L687.973 109.563ZM685.803 103.595L689.071 102.406L688.239 100.117H685.803V103.595ZM666.361 103.595V100.117H663.925L663.092 102.406L666.361 103.595ZM664.191 109.563L660.922 108.375L660.918 108.385L664.191 109.563ZM642.488 111.281L639.847 113.545L640.021 113.748L640.224 113.922L642.488 111.281ZM642.036 109.202L638.752 108.054L638.744 108.078L638.736 108.102L642.036 109.202ZM662.201 51.5087L665.484 52.6562L665.524 52.5413L665.557 52.4238L662.201 51.5087ZM670.973 85.9616L667.642 84.959L666.293 89.4396H670.973V85.9616ZM681.191 85.9616V89.4396H685.894L684.516 84.9426L681.191 85.9616ZM676.037 69.1421L679.362 68.123L676.007 57.1758L672.706 68.1394L676.037 69.1421ZM666.27 52.0025H685.893V45.0465H666.27V52.0025ZM685.893 52.0025C686.454 52.0025 686.553 52.1274 686.481 52.0752C686.455 52.0556 686.451 52.0426 686.469 52.0703C686.491 52.1048 686.548 52.2086 686.607 52.4238L693.318 50.5935C692.888 49.0166 692.04 47.5258 690.595 46.4659C689.167 45.419 687.503 45.0465 685.893 45.0465V52.0025ZM686.679 52.6562L706.845 110.349L713.411 108.054L693.246 50.3611L686.679 52.6562ZM706.828 110.301C706.782 110.161 706.759 110.054 706.749 110.001C706.738 109.944 706.735 109.911 706.735 109.909C706.735 109.906 706.736 109.921 706.738 109.957C706.739 109.992 706.74 110.041 706.74 110.106H713.696C713.696 109.652 713.68 108.858 713.427 108.102L706.828 110.301ZM706.74 110.106C706.74 109.593 706.892 109.218 706.998 109.022C707.097 108.838 707.174 108.774 707.126 108.822L712.045 113.741C712.716 113.069 713.696 111.835 713.696 110.106H706.74ZM707.126 108.822C707.261 108.687 707.45 108.552 707.683 108.459C707.912 108.367 708.108 108.346 708.229 108.346V115.302C709.632 115.302 710.988 114.797 712.045 113.741L707.126 108.822ZM708.229 108.346H691.5V115.302H708.229V108.346ZM691.5 108.346C691.286 108.346 691.165 108.323 691.114 108.311C691.067 108.299 691.086 108.297 691.139 108.331C691.194 108.366 691.24 108.411 691.268 108.448C691.292 108.48 691.276 108.471 691.245 108.385L684.701 110.741C685.192 112.105 686.059 113.337 687.385 114.187C688.676 115.015 690.124 115.302 691.5 115.302V108.346ZM691.242 108.375L689.071 102.406L682.534 104.784L684.704 110.752L691.242 108.375ZM685.803 100.117H666.361V107.073H685.803V100.117ZM663.092 102.406L660.922 108.375L667.459 110.752L669.629 104.784L663.092 102.406ZM660.918 108.385C660.887 108.471 660.871 108.48 660.896 108.448C660.924 108.411 660.97 108.366 661.025 108.331C661.077 108.297 661.096 108.299 661.05 108.311C660.999 108.323 660.878 108.346 660.664 108.346V115.302C662.04 115.302 663.488 115.015 664.779 114.187C666.105 113.337 666.972 112.105 667.463 110.741L660.918 108.385ZM660.664 108.346H643.935V115.302H660.664V108.346ZM643.935 108.346C644.058 108.346 644.217 108.368 644.387 108.432C644.556 108.495 644.678 108.578 644.751 108.641L640.224 113.922C641.26 114.81 642.54 115.302 643.935 115.302V108.346ZM645.129 109.018C645.1 108.984 645.163 109.049 645.239 109.214C645.319 109.388 645.423 109.696 645.423 110.106H638.467C638.467 111.643 639.223 112.816 639.847 113.545L645.129 109.018ZM645.423 110.106C645.423 110.041 645.424 109.992 645.426 109.957C645.427 109.921 645.429 109.906 645.429 109.909C645.428 109.911 645.425 109.944 645.415 110.001C645.405 110.054 645.382 110.161 645.335 110.301L638.736 108.102C638.484 108.858 638.467 109.652 638.467 110.106H645.423ZM645.319 110.349L665.484 52.6562L658.918 50.3611L638.752 108.054L645.319 110.349ZM665.557 52.4238C665.615 52.2086 665.673 52.1048 665.695 52.0703C665.713 52.0426 665.709 52.0556 665.682 52.0752C665.611 52.1274 665.71 52.0025 666.27 52.0025V45.0465C664.661 45.0465 662.996 45.419 661.569 46.4659C660.123 47.5258 659.276 49.0166 658.846 50.5935L665.557 52.4238ZM670.973 89.4396H681.191V82.4836H670.973V89.4396ZM684.516 84.9426L679.362 68.123L672.711 70.1611L677.866 86.9807L684.516 84.9426ZM672.706 68.1394L667.642 84.959L674.303 86.9643L679.367 70.1447L672.706 68.1394Z" fill="white" mask="url(#path-26-outside-1_466_579)"/>
<defs>
<filter id="filter0_d_466_579" x="594.736" y="0" width="76.5158" height="76.5158" filterUnits="userSpaceOnUse" color-interpolation-filters="sRGB">
<feFlood flood-opacity="0" result="BackgroundImageFix"/>
<feColorMatrix in="SourceAlpha" type="matrix" values="0 0 0 0 0 0 0 0 0 0 0 0 0 0 0 0 0 0 127 0" result="hardAlpha"/>
<feOffset dx="3.47799" dy="3.47799"/>
<feGaussianBlur stdDeviation="1.739"/>
<feComposite in2="hardAlpha" operator="out"/>
<feColorMatrix type="matrix" values="0 0 0 0 0 0 0 0 0 0 0 0 0 0 0 0 0 0 0.25 0"/>
<feBlend mode="normal" in2="BackgroundImageFix" result="effect1_dropShadow_466_579"/>
<feBlend mode="normal" in="SourceGraphic" in2="effect1_dropShadow_466_579" result="shape"/>
</filter>
<filter id="filter1_d_466_579" x="316.497" y="0" width="76.5158" height="76.5158" filterUnits="userSpaceOnUse" color-interpolation-filters="sRGB">
<feFlood flood-opacity="0" result="BackgroundImageFix"/>
<feColorMatrix in="SourceAlpha" type="matrix" values="0 0 0 0 0 0 0 0 0 0 0 0 0 0 0 0 0 0 127 0" result="hardAlpha"/>
<feOffset dx="3.47799" dy="3.47799"/>
<feGaussianBlur stdDeviation="1.739"/>
<feComposite in2="hardAlpha" operator="out"/>
<feColorMatrix type="matrix" values="0 0 0 0 0 0 0 0 0 0 0 0 0 0 0 0 0 0 0.25 0"/>
<feBlend mode="normal" in2="BackgroundImageFix" result="effect1_dropShadow_466_579"/>
<feBlend mode="normal" in="SourceGraphic" in2="effect1_dropShadow_466_579" result="shape"/>
</filter>
<filter id="filter2_d_466_579" x="455.617" y="90.4277" width="76.5158" height="76.5158" filterUnits="userSpaceOnUse" color-interpolation-filters="sRGB">
<feFlood flood-opacity="0" result="BackgroundImageFix"/>
<feColorMatrix in="SourceAlpha" type="matrix" values="0 0 0 0 0 0 0 0 0 0 0 0 0 0 0 0 0 0 127 0" result="hardAlpha"/>
<feOffset dx="3.47799" dy="3.47799"/>
<feGaussianBlur stdDeviation="1.739"/>
<feComposite in2="hardAlpha" operator="out"/>
<feColorMatrix type="matrix" values="0 0 0 0 0 0 0 0 0 0 0 0 0 0 0 0 0 0 0.25 0"/>
<feBlend mode="normal" in2="BackgroundImageFix" result="effect1_dropShadow_466_579"/>
<feBlend mode="normal" in="SourceGraphic" in2="effect1_dropShadow_466_579" result="shape"/>
</filter>
<filter id="filter3_d_466_579" x="38.2578" y="0" width="76.5158" height="76.5158" filterUnits="userSpaceOnUse" color-interpolation-filters="sRGB">
<feFlood flood-opacity="0" result="BackgroundImageFix"/>
<feColorMatrix in="SourceAlpha" type="matrix" values="0 0 0 0 0 0 0 0 0 0 0 0 0 0 0 0 0 0 127 0" result="hardAlpha"/>
<feOffset dx="3.47799" dy="3.47799"/>
<feGaussianBlur stdDeviation="1.739"/>
<feComposite in2="hardAlpha" operator="out"/>
<feColorMatrix type="matrix" values="0 0 0 0 0 0 0 0 0 0 0 0 0 0 0 0 0 0 0.25 0"/>
<feBlend mode="normal" in2="BackgroundImageFix" result="effect1_dropShadow_466_579"/>
<feBlend mode="normal" in="SourceGraphic" in2="effect1_dropShadow_466_579" result="shape"/>
</filter>
<filter id="filter4_d_466_579" x="177.377" y="93.9058" width="76.5158" height="76.5158" filterUnits="userSpaceOnUse" color-interpolation-filters="sRGB">
<feFlood flood-opacity="0" result="BackgroundImageFix"/>
<feColorMatrix in="SourceAlpha" type="matrix" values="0 0 0 0 0 0 0 0 0 0 0 0 0 0 0 0 0 0 127 0" result="hardAlpha"/>
<feOffset dx="3.47799" dy="3.47799"/>
<feGaussianBlur stdDeviation="1.739"/>
<feComposite in2="hardAlpha" operator="out"/>
<feColorMatrix type="matrix" values="0 0 0 0 0 0 0 0 0 0 0 0 0 0 0 0 0 0 0.25 0"/>
<feBlend mode="normal" in2="BackgroundImageFix" result="effect1_dropShadow_466_579"/>
<feBlend mode="normal" in="SourceGraphic" in2="effect1_dropShadow_466_579" result="shape"/>
</filter>
</defs>
</svg>
