<svg width="33" height="45" viewBox="0 0 33 45" fill="none" xmlns="http://www.w3.org/2000/svg">
<path d="M22.1543 35.4682V33.0318C22.1543 28.847 18.7618 25.4546 14.577 25.4546C10.3922 25.4546 6.99978 28.847 6.99978 33.0318V35.4682C6.99978 39.653 10.3922 43.0455 14.577 43.0455C18.7618 43.0455 22.1543 39.653 22.1543 35.4682Z" fill="black" fill-opacity="0.15"/>
<path fill-rule="evenodd" clip-rule="evenodd" d="M28.6489 25.0643V14.1175C28.6489 6.34568 22.3487 0.0454102 14.5769 0.0454102C6.8051 0.0454102 0.504827 6.34568 0.504827 14.1175V17.6365H7.54107V16.8532C7.54107 12.9673 10.6912 9.81722 14.5771 9.81722C18.463 9.81722 21.6131 12.9674 21.6131 16.8532V22.3267C21.6131 25.8444 19.0315 28.7593 15.6596 29.2799V29.364C13.7166 29.364 12.1415 30.939 12.1415 32.882V35.6187C12.1415 37.5616 13.7166 39.1367 15.6596 39.1367V39.0953C22.9254 38.5424 28.6489 32.4718 28.6489 25.0643Z" fill="#CACACA"/>
</svg>
